<ttFont>
<head>
    <!-- Most of this table will be recalculated by the compiler -->
    <tableVersion value="1.0"/>
    <fontRevision value="3.01"/>
    <checkSumAdjustment value="0x914ad8b2"/>
    <magicNumber value="0x5f0f3cf5"/>
    <flags value="00000000 00000011"/>
    <unitsPerEm value="1000"/>
    <created value="Mon Aug 14 17:37:57 2017"/>
    <modified value="Mon Aug 14 17:37:57 2017"/>
    <xMin value="-526"/>
    <yMin value="-564"/>
    <xMax value="2592"/>
    <yMax value="1053"/>
    <macStyle value="00000000 00000000"/>
    <lowestRecPPEM value="3"/>
    <fontDirectionHint value="2"/>
    <indexToLocFormat value="0"/>
    <glyphDataFormat value="0"/>
  </head>
          <CharString index="0">
            14 -63 -13 vlineto
            226 callgsubr
            -97 -43 69 93 vhcurveto
            120 104 vlineto
            137 105 71 142 132 -82 75 -121 -123 -78 -80 -121 -16 1 -16 3 -16 hvcurveto
            63 hlineto
            -2 16 -1 15 16 vvcurveto
            90 54 56 83 84 55 -56 -92 -109 -87 -53 -111 vhcurveto
            -148 -171 hlineto
            -132 71 -88 135 118 75 77 125 vhcurveto
            return
          </CharString>
          <CharString index="1">
            -105 callsubr
            61 return
          </CharString>
          <CharString index="2">
            -54 505 -232 vlineto
            -96 callsubr
            return
          </CharString>
          <CharString index="3">
            rmoveto
            -103 callgsubr
            return
          </CharString>
          <CharString index="4">
            -54 394 -98 vlineto
            -37 callsubr
            return
          </CharString>
          <CharString index="5">
            57 vlineto
            -1 -11 -10 -1 -9 hhcurveto
            -113 -59 79 106 97 49 73 return
          </CharString>
          <CharString index="6">
            188 53 353 rmoveto
            -212 146 -149 197 197 146 149 212 211 -146 149 -197 -197 -146 -149 -211 vhcurveto
            614 hmoveto
            -183 -118 -112 -153 -154 -117 112 183 183 117 112 154 153 118 -112 -183 vhcurveto
            return
          </CharString>
          <CharString index="7">
            59 callgsubr
            90 72 -66 -106 -111 -68 -66 -91 -16 -17 2 4 -15 vhcurveto
            -51 vlineto
            -5 16 24 -3 22 hhcurveto
            120 90 85 147 136 -91 89 -119 -96 -59 -50 -64 -28 hvcurveto
            234 vlineto
            return
          </CharString>
          <CharString index="8">
            70 50 273 220 callgsubr
            28 vhcurveto
            -150 69 546 119 callgsubr
            478 hmoveto
            -132 -87 -86 -117 -122 -81 82 136 136 81 82 122 117 87 -85 -133 vhcurveto
            return
          </CharString>
          <CharString index="9">
            rmoveto
            24 20 20 24 25 -20 19 -24 -25 -19 -19 -25 -24 19 -20 25 hvcurveto
            156 hmoveto
            25 19 20 24 25 -19 19 -25 -24 -19 -19 -25 -24 19 -20 24 hvcurveto
            return
          </CharString>
          <CharString index="10">
            rmoveto
            -105 -48 72 115 hvcurveto
            237 302 -262 vlineto
            -88 -53 -74 -96 vhcurveto
            return
          </CharString>
          <CharString index="11">
            62 -28 -59 50 -98 hhcurveto
            -124 -93 -88 -139 -90 callsubr
            hvcurveto
            -220 return
          </CharString>
          <CharString index="12">
            57 callsubr
            138 70 71 95 128 -104 39 -101 hvcurveto
            -45 hlineto
            -62 -57 24 68 78 73 16 62 hvcurveto
            return
          </CharString>
          <CharString index="13">
            85 137 3 0 4 1 4 hvcurveto
            127 3 78 55 137 vvcurveto
            84 -54 callsubr
            -93 -78 return
          </CharString>
          <CharString index="14">
            -54 325 -89 callgsubr
            return
          </CharString>
          <CharString index="15">
            -300 -98 callgsubr
          </CharString>
          <CharString index="16">
            -6 callgsubr
            -167 137 callsubr
            return
          </CharString>
          <CharString index="17">
            -144 91 -89 124 97 62 50 64 28 return
          </CharString>
          <CharString index="18">
            59 callsubr
            321 -260 vlineto
            -89 -56 -75 -103 vhcurveto
            363 127 callgsubr
            return
          </CharString>
          <CharString index="19">
            -62 hlineto
            -119 -82 -84 -119 -116 -85 81 114 139 100 66 128 vhcurveto
            91 181 hlineto
            return
          </CharString>
          <CharString index="20">
            -48 -78 callsubr
            return
          </CharString>
          <CharString index="21">
            rmoveto
            -62 hlineto
            -49 -14 -51 -57 -91 hhcurveto
            -108 -57 73 91 89 57 75 108 95 50 -58 -49 11 hvcurveto
            62 hlineto
            79 -15 -66 80 -136 hhcurveto
            295 callsubr
            67 56 22 63 vhcurveto
            186 177 144 54 return
          </CharString>
          <CharString index="22">
            -111 -68 70 105 hvcurveto
            120 3 vlineto
            96 84 45 152 hvcurveto
            140 return
          </CharString>
          <CharString index="23">
            21 547 546 rmoveto
            -70 -290 hlineto
            -140 -74 -67 -105 -101 -67 63 122 vhcurveto
            312 -70 -318 vlineto
            -162 94 -76 121 91 82 47 98 29 vhcurveto
            return
          </CharString>
          <CharString index="24">
            -63 -79 callgsubr
            return
          </CharString>
          <CharString index="25">
            -84 callgsubr
            vhcurveto
            return
          </CharString>
          <CharString index="26">
            136 callgsubr
            114 74 68 82 36 vhcurveto
            -3 return
          </CharString>
          <CharString index="27">
            -74 callsubr
            17 17 -2 19 hhcurveto
            return
          </CharString>
          <CharString index="28">
            175 callgsubr
            hvcurveto
            -100 callgsubr
            return
          </CharString>
          <CharString index="29">
            -85 callgsubr
            120 return
          </CharString>
          <CharString index="30">
            161 -107 callgsubr
            return
          </CharString>
          <CharString index="31">
            -54 118 -237 vlineto
            -47 callgsubr
            return
          </CharString>
          <CharString index="32">
            -124 -46 vlineto
            -167 -129 -89 -186 -167 128 -107 168 143 91 78 115 95 -64 67 -101 -85 -68 -51 -87 -8 1 -11 2 -9 hvcurveto
            48 hlineto
            -1 6 -1 8 6 vvcurveto
            60 47 39 55 65 46 -49 -66 -86 -74 -59 -103 -140 -95 93 131 157 109 74 142 vhcurveto
            return
          </CharString>
          <CharString index="33">
            -54 300 -133 vlineto
            -81 callsubr
            return
          </CharString>
          <CharString index="34">
            -102 callgsubr
            386 583 rmoveto
            return
          </CharString>
          <CharString index="35">
            -26 callsubr
            109 81 return
          </CharString>
          <CharString index="36">
            -101 -70 callgsubr
            return
          </CharString>
          <CharString index="37">
            rmoveto
            94 62 60 93 95 61 -60 -94 -93 -61 -61 -95 -93 -62 61 93 vhcurveto
            return
          </CharString>
          <CharString index="38">
            41 hlineto
            77 78 -26 -94 -64 -48 -52 -100 -118 -58 63 80 -1 hvcurveto
            -63 hlineto
            return
          </CharString>
          <CharString index="39">
            194 rmoveto
            -107 callsubr
            return
          </CharString>
          <CharString index="40">
            -90 callsubr
            vhcurveto
            -17 callgsubr
            return
          </CharString>
          <CharString index="41">
            rmoveto
            -46 hlineto
            89 -21 -71 62 -99 160 callgsubr
            235 589 -98 vlineto
            -108 -63 149 callsubr
            return
          </CharString>
          <CharString index="42">
            rmoveto
            115 85 81 116 116 85 -81 -115 -114 -85 -82 -116 -116 -85 82 114 vhcurveto
            return
          </CharString>
          <CharString index="43">
            31 52 -22 hlineto
            -1 callsubr
            return
          </CharString>
          <CharString index="44">
            rmoveto
            -211 139 -148 203 192 130 138 179 13 vhcurveto
            62 -354 -53 293 vlineto
            -166 -12 -115 -98 -141 hhcurveto
            -159 -117 111 186 183 117 112 152 121 88 -68 -91 35 hvcurveto
            73 hlineto
            134 -41 -113 89 -163 hhcurveto
            -202 -139 -148 -211 hvcurveto
            return
          </CharString>
          <CharString index="45">
            rmoveto
            -52 vlineto
            205 121 rlineto
            59 vlineto
            endchar
          </CharString>
          <CharString index="46">
            154 79 105 138 120 -60 85 -97 18 hvcurveto
            141 260 54 return
          </CharString>
          <CharString index="47">
            162 53 352 rmoveto
            -210 136 -149 197 174 109 92 139 44 vhcurveto
            -74 hlineto
            -96 -36 -85 -70 -133 hhcurveto
            -146 -114 112 182 183 114 112 146 133 85 -69 -97 36 hvcurveto
            74 hlineto
            139 -44 -109 92 -174 hhcurveto
            -197 -136 -148 -212 hvcurveto
            return
          </CharString>
          <CharString index="48">
            64 -43 callgsubr
          </CharString>
          <CharString index="49">
            -16 9 -17 6 -20 3 rrcurveto
            1 vlineto
            84 19 41 60 77 vvcurveto
            108 -82 68 -113 -117 -86 -69 -112 vhcurveto
            59 hlineto
            78 -1 65 48 80 hhcurveto
            76 62 -47 -84 -58 -45 -64 -97 hvcurveto
            return
          </CharString>
          <CharString index="50">
            -59 -81 -88 -41 66 91 vhcurveto
            return
          </CharString>
          <CharString index="51">
            -73 -47 56 78 hvcurveto
            304 240 -304 vlineto
            -78 -44 -56 -76 vhcurveto
            return
          </CharString>
          <CharString index="52">
            920 828 161 rmoveto
            -96 -73 65 113 107 76 65 93 119 50 285 callgsubr
            -161 rmoveto
            248 callgsubr
            46 96 118 90 72 -66 -106 -112 -69 -64 -90 -16 -17 1 4 -13 vhcurveto
            -52 vlineto
            -4 16 22 160 callsubr
            91 85 146 136 -90 90 -120 -95 -59 -50 -64 -27 hvcurveto
            234 494 54 -957 -54 402 -233 vlineto
            63 -28 -60 50 -97 hhcurveto
            -125 -92 -88 -139 -144 90 -89 125 98 61 51 65 28 hvcurveto
            -222 vlineto
            -502 -68 callsubr
            return
          </CharString>
          <CharString index="53">
            216 -316 vlineto
            -118 return
          </CharString>
          <CharString index="54">
            -70 callsubr
            -120 -293 rmoveto
            -85 callsubr
            579 vlineto
            5 15 17 2 17 hhcurveto
            85 55 -56 -92 -109 -87 -53 -111 hvcurveto
            -93 hlineto
            105 -15 -80 62 -113 209 callgsubr
            40 -64 65 -31 hvcurveto
            -60 -25 -54 -52 -89 hhcurveto
            825 140 96 callsubr
            -21 -19 -3 -6 -17 hvcurveto
            -936 133 callgsubr
            hlineto
            48 callsubr
            63 54 20 37 36 hvcurveto
            -128 3 72 -80 130 hhcurveto
            118 75 77 125 hvcurveto
            269 callsubr
            685 140 55 199 callgsubr
          </CharString>
          <CharString index="55">
            41 546 hmoveto
            76 hlineto
            -260 689 rlineto
            -79 hlineto
            -260 -689 rlineto
            75 hlineto
            64 172 rlineto
            321 hlineto
            return
          </CharString>
          <CharString index="56">
            rmoveto
            -205 330 103 -160 vvcurveto
            -55 -39 -42 -71 -97 -54 54 68 -7 vhcurveto
            -68 hlineto
            -108 14 85 -66 126 hhcurveto
            108 69 62 86 hvcurveto
            211 -331 -102 154 vvcurveto
            58 42 39 73 89 47 -56 -66 8 vhcurveto
            67 hlineto
            104 -15 -73 70 -121 hhcurveto
            -113 -69 -60 -89 hvcurveto
            return
          </CharString>
          <CharString index="57">
            -126 64 -82 callsubr
            return
          </CharString>
          <CharString index="58">
            6 callgsubr
            -128 -97 -86 -133 -5 hvcurveto
            -2 vlineto
            -135 -17 -79 -57 -118 42 callgsubr
            return
          </CharString>
          <CharString index="59">
            96 -92 134 101 66 50 66 31 vhcurveto
            48 callgsubr
            return
          </CharString>
          <CharString index="60">
            -108 -63 126 callsubr
            return
          </CharString>
          <CharString index="61">
            vlineto
            -106 -79 -83 callsubr
            85 return
          </CharString>
          <CharString index="62">
            rmoveto
            131 63 -100 -93 -39 -12 -43 -26 -35 hvcurveto
            -289 262 rlineto
            169 callgsubr
            return
          </CharString>
          <CharString index="63">
            457 494 rmoveto
            -88 -46 -59 -124 vhcurveto
            -140 297 140 hlineto
            124 46 -59 -91 hvcurveto
            -381 211 rmoveto
            -705 71 294 114 vlineto
            193 -294 rlineto
            80 hlineto
            -199 296 rlineto
            126 13 67 73 116 vvcurveto
            120 -71 87 -165 vhcurveto
            return
          </CharString>
          <CharString index="64">
            rmoveto
            -85 callsubr
            416 -228 vlineto
            52 -26 -51 41 -82 hhcurveto
            -112 -87 -79 -122 -89 42 -66 64 -31 259 callsubr
            -51 -88 hhcurveto
            return
          </CharString>
          <CharString index="65">
            -174 -164 rlineto
            71 hlineto
            223 212 rlineto
            0 vlineto
            11 11 10 12 7 13 rrcurveto
            -206 63 319 -59 vlineto
            -68 -36 -41 -43 -22 vhcurveto
            -2 1 -3 -3 rlineto
            -10 -23 -25 -5 -23 hhcurveto
            -106 -68 68 105 120 94 60 112 hvcurveto
            258 callsubr
            hlineto
            endchar
          </CharString>
          <CharString index="66">
            20 50 273 rmoveto
            -175 112 -105 155 141 95 81 120 20 vhcurveto
            -73 hlineto
            -87 -15 -72 -53 -97 hhcurveto
            -102 -93 68 151 151 93 68 102 97 72 -53 -87 15 hvcurveto
            73 hlineto
            120 -20 -95 81 -141 hhcurveto
            -155 -112 -104 -176 hvcurveto
            return
          </CharString>
          <CharString index="67">
            350 216 hmoveto
            84 hlineto
            177 604 176 -604 rlineto
            84 hlineto
            182 705 rlineto
            -77 hlineto
            -148 -619 -178 619 rlineto
            -79 hlineto
            -178 -618 -147 618 rlineto
            -78 hlineto
            return
          </CharString>
          <CharString index="68">
            -64 callsubr
            133 return
          </CharString>
          <CharString index="69">
            -15 callgsubr
            -108 -76 -70 -111 210 callsubr
            hvcurveto
            -45 callgsubr
            -101 hlineto
            -2 -16 -1 -16 -15 vvcurveto
            return
          </CharString>
          <CharString index="70">
            -108 -63 -69 -116 vhcurveto
            -98 -204 hlineto
            193 callgsubr
            return
          </CharString>
          <CharString index="71">
            -145 -121 -77 -158 -140 91 -86 131 77 64 35 52 27 hvcurveto
            4 callgsubr
            return
          </CharString>
          <CharString index="72">
            vvcurveto
            106 -85 60 -98 -103 -85 -62 -111 -101 75 -59 87 -14 vhcurveto
            -90 -47 -97 -46 -117 vvcurveto
            -94 67 -69 103 88 44 53 29 11 vhcurveto
            -164 vlineto
            return
          </CharString>
          <CharString index="73">
            -144 -104 -95 -144 -144 107 -93 143 return
          </CharString>
          <CharString index="74">
            -75 vlineto
            -5 callsubr
            -14 -2 -16 -14 return
          </CharString>
          <CharString index="75">
            -5 callgsubr
            739 41 callgsubr
            -87 -73 -40 -68 -39 hvcurveto
            64 -33 -60 38 -76 hhcurveto
            -94 -54 -49 -62 11 callsubr
            786 -4 -102 callgsubr
            return
          </CharString>
          <CharString index="76">
            330 vlineto
            84 1 46 97 117 hhcurveto
            90 130 callgsubr
            hvcurveto
            -52 vlineto
            -4 17 22 160 callsubr
            90 85 146 136 -90 90 -120 -96 -58 -51 -64 -27 hvcurveto
            235 494 54 return
          </CharString>
          <CharString index="77">
            -80 65 -114 hhcurveto
            -149 -107 -105 -175 return
          </CharString>
          <CharString index="78">
            -95 callsubr
            168 180 hlineto
            endchar
          </CharString>
          <CharString index="79">
            -298 vlineto
            -112 65 -82 117 118 65 81 113 vhcurveto
            298 return
          </CharString>
          <CharString index="80">
            -127 -69 -29 -76 vhcurveto
            -37 -162 hlineto
            return
          </CharString>
          <CharString index="81">
            -113 83 -74 114 return
          </CharString>
          <CharString index="82">
            80 58 55 82 79 57 -56 -78 -78 -57 -56 224 callgsubr
            736 -104 rmoveto
            -135 -79 95 148 hvcurveto
            126 4 81 53 128 -39 callgsubr
            return
          </CharString>
          <CharString index="83">
            vhcurveto
            414 512 rmoveto
            54 return
          </CharString>
          <CharString index="84">
            -140 91 -86 131 77 64 35 52 27 vhcurveto
            103 callsubr
          </CharString>
          <CharString index="85">
            46 34 30 58 80 vvcurveto
            return
          </CharString>
          <CharString index="86">
            1 -147 178 callsubr
            return
          </CharString>
          <CharString index="87">
            -37 callsubr
            160 return
          </CharString>
          <CharString index="88">
            512 801 496 rmoveto
            102 100 -62 -141 -8 hvcurveto
            -396 hlineto
            143 5 97 60 100 hhcurveto
            261 -308 rmoveto
            -74 hlineto
            -86 -15 -74 -52 -99 hhcurveto
            -101 -95 62 145 -5 hvcurveto
            462 hlineto
            3 17 1 11 23 vvcurveto
            129 -87 116 -159 -105 -89 -54 -103 -28 vhcurveto
            150 64 callgsubr
            -174 107 -106 149 114 80 65 92 28 hvcurveto
            -150 69 151 vlineto
            -105 28 89 -53 105 hhcurveto
            135 88 82 113 20 hvcurveto
            -941 85 rmoveto
            136 81 82 122 117 87 -85 -133 -132 -87 -86 -117 -122 -81 82 136 vhcurveto
            return
          </CharString>
          <CharString index="89">
            -64 callgsubr
            endchar
          </CharString>
          <CharString index="90">
            113 callsubr
            -149 113 -102 153 157 105 105 154 hvcurveto
            -88 callsubr
            return
          </CharString>
          <CharString index="91">
            rmoveto
            26 -19 19 -25 -26 -19 -19 -26 -25 19 -19 26 25 19 19 25 vhcurveto
            return
          </CharString>
          <CharString index="92">
            168 114 74 54 64 34 vhcurveto
            85 callsubr
            return
          </CharString>
          <CharString index="93">
            108 64 70 132 return
          </CharString>
          <CharString index="94">
            -82 callgsubr
            447 602 rmoveto
            54 -1339 -54 597 -114 vlineto
            -101 55 -43 66 -10 vhcurveto
            -2 vlineto
            -68 -11 -58 -42 -16 -73 rrcurveto
            0 vlineto
            -16 -69 -68 -62 -90 -1 rrcurveto
            -91 -78 56 102 26 callgsubr
            -132 103 -72 120 1 vhcurveto
            79 1 64 35 41 55 return
          </CharString>
          <CharString index="95">
            -56 243 6 rmoveto
            -110 -264 rlineto
            80 hlineto
            321 804 rlineto
            -78 hlineto
            -175 -455 -190 455 rlineto
            -78 hlineto
            return
          </CharString>
          <CharString index="96">
            45 -10 callgsubr
            55 13 vlineto
            return
          </CharString>
          <CharString index="97">
            -54 325 -235 vlineto
            -52 -19 -55 -72 -69 -22 54 51 vhcurveto
            31 -62 vlineto
            -1 -10 0 -10 -11 vvcurveto
            -90 50 -71 105 111 43 76 89 vhcurveto
            233 return
          </CharString>
          <CharString index="98">
            897 1529 -31 callgsubr
            -1558 -54 1354 302 callsubr
            -168 vlineto
            -82 -47 -56 -76 -74 -46 55 86 vhcurveto
            14 vlineto
            117 -74 80 -111 -109 -48 -80 -73 -16 vhcurveto
            94 callsubr
            92 87 43 -65 -97 1 vhcurveto
            -113 3 65 -77 114 hhcurveto
            116 70 252 callsubr
            64 686 vlineto
            return
          </CharString>
          <CharString index="99">
            -11 callsubr
            120 48 80 97 return
          </CharString>
          <CharString index="100">
            257 4 callsubr
            return
          </CharString>
          <CharString index="101">
            -107 callgsubr
            17 -188 rmoveto
            -101 callgsubr
            return
          </CharString>
          <CharString index="102">
            60 callgsubr
            -16 hlineto
            -1 return
          </CharString>
          <CharString index="103">
            -78 callsubr
            48 80 97 85 47 return
          </CharString>
          <CharString index="104">
            -33 callgsubr
            -48 -57 callsubr
            return
          </CharString>
          <CharString index="105">
            36 -72 hhcurveto
            -112 -87 callsubr
            return
          </CharString>
          <CharString index="106">
            -132 -72 72 123 return
          </CharString>
          <CharString index="107">
            686 141 54 return
          </CharString>
          <CharString index="108">
            hhcurveto
            95 callsubr
          </CharString>
          <CharString index="109">
            3 callgsubr
            -100 -66 -68 -94 124 callgsubr
            -116 return
          </CharString>
          <CharString index="110">
            310 258 rmoveto
            -110 -49 73 120 hvcurveto
            181 vlineto
            303 -268 rlineto
            -49 -9 -48 -57 -87 hhcurveto
            return
          </CharString>
          <CharString index="111">
            166 -50 callgsubr
            return
          </CharString>
          <CharString index="112">
            -119 -112 83 -75 200 callgsubr
            71 111 return
          </CharString>
          <CharString index="113">
            65 -29 48 -38 29 return
          </CharString>
          <CharString index="114">
            75 callsubr
            -147 95 -88 145 11 10 1 1 10 vhcurveto
            -149 -144 rlineto
            -4 69 vlineto
            206 202 29 return
          </CharString>
          <CharString index="115">
            85 176 vlineto
            -171 94 -111 169 98 callsubr
            vhcurveto
            109 callgsubr
          </CharString>
          <CharString index="116">
            -97 callsubr
            709 127 callgsubr
            return
          </CharString>
          <CharString index="117">
            -81 callgsubr
            120 48 80 97 return
          </CharString>
          <CharString index="118">
            -25 hvcurveto
            -230 -292 -107 callgsubr
            return
          </CharString>
          <CharString index="119">
            209 callsubr
            -204 hlineto
            -50 callsubr
            return
          </CharString>
          <CharString index="120">
            73 819 -31 callgsubr
            -848 7 callsubr
            26 22 32 14 34 rlinecurve
            -3 18 18 108 callgsubr
            return
          </CharString>
          <CharString index="121">
            rmoveto
            54 -695 -54 445 -124 -46 vlineto
            -167 -129 -89 -186 -141 91 -98 128 -27 hvcurveto
            -157 -164 rlineto
            84 callsubr
            -153 158 rlineto
            118 15 73 73 103 vvcurveto
            103 callgsubr
          </CharString>
          <CharString index="122">
            -17 525 30 rmoveto
            -57 hlineto
            -48 -15 -51 -57 -92 hhcurveto
            -112 -59 80 97 97 61 82 106 71 46 -35 -35 22 hvcurveto
            -123 -122 rlineto
            61 hlineto
            121 120 rlineto
            65 -23 -70 57 -106 hhcurveto
            -19 -18 -2 -3 -17 hvcurveto
            -49 13 -36 31 50 185 callsubr
            -67 44 -39 48 -19 hvcurveto
            -74 -37 -42 -77 -88 vvcurveto
            -126 79 -105 149 129 73 78 79 16 vhcurveto
            return
          </CharString>
          <CharString index="123">
            69 hlineto
            144 152 rlineto
            3 hlineto
            145 -152 rlineto
            69 hlineto
            -152 157 rlineto
            124 23 79 97 134 vvcurveto
            -77 callgsubr
          </CharString>
          <CharString index="124">
            hvcurveto
            -230 -293 -107 callgsubr
            return
          </CharString>
          <CharString index="125">
            234 callgsubr
            95 135 callsubr
            vlineto
            return
          </CharString>
          <CharString index="126">
            -80 callgsubr
            endchar
          </CharString>
          <CharString index="127">
            55 137 -39 callgsubr
            return
          </CharString>
          <CharString index="128">
            69 318 hlineto
            162 -93 76 -121 -91 -82 -47 -97 -29 vhcurveto
            134 -71 -546 71 290 vlineto
            140 74 67 105 101 67 -63 -121 vhcurveto
            return
          </CharString>
          <CharString index="129">
            145 260 callsubr
            vhcurveto
            144 callgsubr
            -90 callsubr
            hvcurveto
            -17 callgsubr
            return
          </CharString>
          <CharString index="130">
            rmoveto
            54 -635 154 callgsubr
            2 -95 61 -71 108 -21 -155 -161 rcurveline
            84 callsubr
            -153 159 rlineto
            103 15 53 65 82 vvcurveto
            128 -104 39 -101 vhcurveto
            255 callsubr
            endchar
          </CharString>
          <CharString index="131">
            258 181 callgsubr
            -2 -1 -2 -2 vvcurveto
            -48 -12 -51 -52 -87 hhcurveto
            434 302 rmoveto
            -127 -101 -51 -100 -41 hvcurveto
            -331 277 rlineto
            632 -126 hlineto
            return
          </CharString>
          <CharString index="132">
            -3 hlineto
            78 -27 -67 66 312 callsubr
            -97 -89 -139 -132 96 -91 128 107 75 66 80 22 hvcurveto
            return
          </CharString>
          <CharString index="133">
            35 572 rmoveto
            -86 60 -56 81 80 60 56 86 86 -60 56 -80 -81 -60 -56 -86 vhcurveto
            140 96 rmoveto
            53 37 -40 -56 -57 -37 -39 -53 -53 -36 39 57 56 36 40 53 hvcurveto
            -105 -668 rmoveto
            70 hlineto
            411 706 rlineto
            -71 hlineto
            -174 -572 rmoveto
            -86 60 -57 80 80 60 57 86 86 -60 56 -80 -80 -60 -56 -86 vhcurveto
            140 96 rmoveto
            52 37 -40 -56 -57 -37 -40 -52 -53 -36 40 57 56 36 40 53 hvcurveto
            return
          </CharString>
          <CharString index="134">
            hhcurveto
            322 callgsubr
            hvcurveto
            -55 hlineto
            80 -21 -62 48 -91 hhcurveto
            -113 -49 -78 callsubr
            48 80 98 79 43 -47 -63 9 vhcurveto
            -2 0 -3 -3 vvcurveto
            return
          </CharString>
          <CharString index="135">
            987 rmoveto
            -53 hlineto
            -57 -44 -62 -97 -97 -44 62 57 vhcurveto
            -52 hlineto
            -86 61 -81 132 132 62 81 86 vhcurveto
            -157 30 rmoveto
            21 -15 15 -21 -21 -16 -15 -21 -21 16 -15 21 21 15 15 21 vhcurveto
            endchar
          </CharString>
          <CharString index="136">
            rmoveto
            -55 hlineto
            -56 -42 -62 -97 -97 -41 62 56 vhcurveto
            -55 hlineto
            -84 58 -83 135 135 59 83 84 vhcurveto
            endchar
          </CharString>
          <CharString index="137">
            -139 vlineto
            -97 -11 -43 -74 -15 -67 rrcurveto
            return
          </CharString>
          <CharString index="138">
            46 callsubr
            -121 return
          </CharString>
          <CharString index="139">
            216 30 callgsubr
            return
          </CharString>
          <CharString index="140">
            243 callgsubr
            -141 93 -87 122 7 7 0 1 6 hvcurveto
            -167 -158 rlineto
            71 hlineto
            214 203 21 18 17 23 11 25 rlinecurve
            -223 vlineto
            -169 161 152 callsubr
          </CharString>
          <CharString index="141">
            rmoveto
            -590 vlineto
            -386 590 rlineto
            -71 -704 71 589 hlineto
            386 -589 rlineto
            71 704 hlineto
            return
          </CharString>
          <CharString index="142">
            -1 14 hhcurveto
            83 52 41 53 25 hvcurveto
            -237 vlineto
            -420 54 rmoveto
            -112 -68 70 105 hvcurveto
            105 vlineto
            1 2 0 1 hhcurveto
            96 83 45 152 hvcurveto
            155 228 callsubr
            63 -31 259 callsubr
            -51 -87 hhcurveto
            272 140 rmoveto
            -84 -68 56 100 95 70 56 82 105 43 -82 -72 -69 -44 -84 -104 hvcurveto
            endchar
          </CharString>
          <CharString index="143">
            -36 callsubr
            hlineto
            return
          </CharString>
          <CharString index="144">
            -18 61 513 rmoveto
            69 hlineto
            104 12 73 44 82 hhcurveto
            91 52 -52 -77 -89 -66 -46 -137 hvcurveto
            -22 -59 22 hlineto
            136 80 -50 -97 -77 -50 -60 -104 -107 -60 66 90 -14 hvcurveto
            -69 hlineto
            -143 17 95 -74 140 hhcurveto
            151 70 86 108 107 -74 49 -97 24 hvcurveto
            6 vlineto
            112 11 46 73 82 vvcurveto
            102 -73 79 -137 -143 -84 -78 -129 -11 vhcurveto
            endchar
          </CharString>
          <CharString index="145">
            58 callgsubr
            39 callgsubr
            return
          </CharString>
          <CharString index="146">
            7 79 194 rmoveto
            -115 12 71 -87 136 hhcurveto
            188 64 148 231 185 -43 163 -220 -165 -69 -110 -124 -151 84 -90 142 103 85 55 88 19 hvcurveto
            -242 9 -69 -95 -128 hhcurveto
            -91 -49 55 89 -13 hvcurveto
            148 106 rmoveto
            -105 -69 63 121 111 69 63 101 135 53 -95 -95 -115 -96 -53 -88 hvcurveto
            endchar
          </CharString>
          <CharString index="147">
            -142 94 callgsubr
            -140 return
          </CharString>
          <CharString index="148">
            vlineto
            92 -27 134 callsubr
          </CharString>
          <CharString index="149">
            rmoveto
            -106 -48 9 callgsubr
            825 77 callsubr
            -109 -75 -68 -110 -17 hvcurveto
            -62 -17 -47 -46 -77 hhcurveto
            return
          </CharString>
          <CharString index="150">
            -220 61 248 callgsubr
            45 94 112 2 vhcurveto
            93 2 46 -64 7 -63 rrcurveto
            0 vlineto
            -154 94 -113 169 98 callsubr
            vhcurveto
            109 callgsubr
          </CharString>
          <CharString index="151">
            248 callgsubr
            47 280 callsubr
            73 -66 -106 return
          </CharString>
          <CharString index="152">
            54 19 -22 -28 -31 -19 -22 -54 hvcurveto
            -82 -43 90 hlineto
            69 48 33 62 64 -53 29 -74 -4 hvcurveto
            return
          </CharString>
          <CharString index="153">
            -54 134 50 callgsubr
            return
          </CharString>
          <CharString index="154">
            rmoveto
            -114 -52 73 120 hvcurveto
            182 vlineto
            return
          </CharString>
          <CharString index="155">
            -81 callsubr
            16 18 -2 18 hhcurveto
            return
          </CharString>
          <CharString index="156">
            -80 477 705 rmoveto
            -428 -59 349 hlineto
            -359 -590 rlineto
            -56 445 59 -367 vlineto
            360 589 rlineto
            return
          </CharString>
          <CharString index="157">
            hhcurveto
            83 59 36 58 31 hvcurveto
            142 callgsubr
          </CharString>
          <CharString index="158">
            74 138 302 -65 callsubr
            201 -250 32 callgsubr
            -735 -54 335 -135 vlineto
            -131 -13 -101 -95 -141 vvcurveto
            -149 297 callgsubr
            return
          </CharString>
          <CharString index="159">
            -50 callgsubr
            140 vlineto
            -168 94 -111 168 114 74 54 64 34 vhcurveto
            145 callgsubr
            -170 275 callgsubr
            return
          </CharString>
          <CharString index="160">
            rmoveto
            -84 -68 56 100 95 70 56 82 106 42 -82 -72 -69 -43 -84 -105 hvcurveto
            return
          </CharString>
          <CharString index="161">
            rmoveto
            -104 -80 67 115 111 83 68 101 109 61 -69 -73 8 hvcurveto
            0 vlineto
            -9 0 -9 1 -9 vhcurveto
            -12 vlineto
            -83 -52 -97 -127 vhcurveto
            453 17 rmoveto
            -133 -80 73 119 hvcurveto
            4 0 5 4 vvcurveto
            129 4 78 57 139 vvcurveto
            107 241 callsubr
            return
          </CharString>
          <CharString index="162">
            -62 hlineto
            -110 -61 -64 -104 -117 -57 77 122 vhcurveto
            413 329 -124 vlineto
            -108 -38 -43 -98 8 vhcurveto
            -58 vlineto
            144 -13 54 65 148 vvcurveto
            125 return
          </CharString>
          <CharString index="163">
            rmoveto
            54 -873 19 callgsubr
            -144 131 -75 189 245 callsubr
            return
          </CharString>
          <CharString index="164">
            -69 callsubr
            -114 2 88 -79 151 hhcurveto
            return
          </CharString>
          <CharString index="165">
            146 154 146 -154 rlineto
            69 hlineto
            return
          </CharString>
          <CharString index="166">
            -112 -50 9 callgsubr
            return
          </CharString>
          <CharString index="167">
            526 302 -65 callsubr
            -209 -44 181 callgsubr
            -49 -9 -51 -57 -91 hhcurveto
            377 428 rmoveto
            -135 vlineto
            -95 -10 -79 -52 -37 -82 -332 279 rcurveline
            return
          </CharString>
          <CharString index="168">
            734 1225 hmoveto
            0 callsubr
            -1395 -54 710 -148 vlineto
            -123 -64 -31 -72 -2 vhcurveto
            64 -26 -67 54 -120 171 callgsubr
            109 45 -60 -48 10 hvcurveto
            -101 vlineto
            return
          </CharString>
          <CharString index="169">
            -54 443 172 callsubr
            76 78 -26 -94 -61 -43 -55 -92 -104 -58 62 81 -9 hvcurveto
            -57 -255 60 return
          </CharString>
          <CharString index="170">
            -88 callgsubr
            6 callsubr
            return
          </CharString>
          <CharString index="171">
            rmoveto
            -197 234 197 hlineto
            return
          </CharString>
          <CharString index="172">
            212 844 -31 callgsubr
            -873 110 callgsubr
            rlineto
            170 28 113 112 170 vvcurveto
            return
          </CharString>
          <CharString index="173">
            -54 307 -33 callsubr
            vvcurveto
            return
          </CharString>
          <CharString index="174">
            vvcurveto
            98 callgsubr
            vhcurveto
            -215 vlineto
            -190 532 -64 callgsubr
            return
          </CharString>
          <CharString index="175">
            rmoveto
            -75 -139 rlineto
            48 hlineto
            86 139 rlineto
            -208 hmoveto
            -65 -139 rlineto
            48 hlineto
            76 139 rlineto
            endchar
          </CharString>
          <CharString index="176">
            hhcurveto
            -115 -49 -80 -73 -16 hvcurveto
            89 callsubr
            46 return
          </CharString>
          <CharString index="177">
            6 84 711 rmoveto
            -390 68 vlineto
            55 30 60 35 77 hhcurveto
            110 60 -65 -105 -105 -54 -79 -119 -89 -65 52 94 -17 hvcurveto
            -69 hlineto
            -127 13 93 -81 138 hhcurveto
            166 72 112 133 119 -64 109 -160 -79 -71 -33 -47 -35 hvcurveto
            261 374 62 vlineto
            endchar
          </CharString>
          <CharString index="178">
            -540 -87 callgsubr
            return
          </CharString>
          <CharString index="179">
            58 54 114 callsubr
            55 return
          </CharString>
          <CharString index="180">
            -231 vlineto
            6 callgsubr
            return
          </CharString>
          <CharString index="181">
            rmoveto
            -264 hlineto
            -22 callsubr
            98 375 -110 vlineto
            -125 -75 -35 -112 vhcurveto
            256 -255 rmoveto
            -134 -78 77 123 hvcurveto
            3 0 4 4 vvcurveto
            124 3 82 55 137 vvcurveto
            119 216 -328 292 callgsubr
            -79 -117 vhcurveto
            414 525 rmoveto
            54 return
          </CharString>
          <CharString index="182">
            133 callgsubr
            vlineto
            -27 callsubr
            return
          </CharString>
          <CharString index="183">
            68 -95 135 78 55 36 57 30 vhcurveto
            -92 callsubr
          </CharString>
          <CharString index="184">
            131 callgsubr
            -16 -48 81 -108 hhcurveto
            return
          </CharString>
          <CharString index="185">
            72 -16 -48 118 callgsubr
            return
          </CharString>
          <CharString index="186">
            -59 383 -30 rmoveto
            308 321 rlineto
            67 vlineto
            -380 -388 rlineto
            380 716 rmoveto
            54 -720 -54 vlineto
            720 -238 rmoveto
            56 -303 53 callgsubr
            43 vlineto
            return
          </CharString>
          <CharString index="187">
            -95 callgsubr
            370 286 64 callsubr
            205 hmoveto
            54 return
          </CharString>
          <CharString index="188">
            hhcurveto
            -79 callsubr
            endchar
          </CharString>
          <CharString index="189">
            -2 vlineto
            -62 -8 -61 -52 -89 vvcurveto
            -115 89 -59 112 118 91 71 119 22 vhcurveto
            -6 22 23 -3 24 hhcurveto
            76 64 35 51 28 hvcurveto
            -205 1 callgsubr
          </CharString>
          <CharString index="190">
            123 -48 84 -116 -100 -63 -66 -101 -14 168 callgsubr
            63 hlineto
            -3 15 -1 12 13 vvcurveto
            72 42 42 59 73 31 -55 -87 vhcurveto
            return
          </CharString>
          <CharString index="191">
            69 hlineto
            58 callsubr
            return
          </CharString>
          <CharString index="192">
            -237 64 686 return
          </CharString>
          <CharString index="193">
            151 101 101 148 hvcurveto
            -61 hlineto
            -113 -79 -80 -113 -111 -80 81 114 139 100 66 128 vhcurveto
            342 hlineto
            62 83 -7 -81 -61 -54 -18 -87 hvcurveto
            -27 hlineto
            -10 -1 -11 -10 vvcurveto
            -144 74 -91 141 94 58 48 70 30 vhcurveto
            -190 vlineto
            return
          </CharString>
          <CharString index="194">
            -36 45 3 rmoveto
            479 58 -379 hlineto
            154 92 205 185 177 vvcurveto
            136 -90 64 -120 -135 -93 -85 -155 -10 vhcurveto
            69 hlineto
            105 6 50 75 108 hhcurveto
            109 35 -68 -78 -145 -169 -166 -219 -145 hvcurveto
            endchar
          </CharString>
          <CharString index="195">
            -76 46 -25 vlineto
            -34 -13 -18 -34 vhcurveto
            -35 vlineto
            58 33 31 72 24 -3 28 -6 33 hvcurveto
            endchar
          </CharString>
          <CharString index="196">
            10 callsubr
            93 return
          </CharString>
          <CharString index="197">
            rmoveto
            111 83 68 101 128 53 -96 -86 -80 -53 -99 -128 -104 -80 67 115 vhcurveto
            return
          </CharString>
          <CharString index="198">
            rmoveto
            85 175 -398 204 callsubr
            -205 -288 -175 90 vlineto
            123 return
          </CharString>
          <CharString index="199">
            vlineto
            -88 -92 -33 -106 259 callgsubr
            hvcurveto
            -95 callsubr
            return
          </CharString>
          <CharString index="200">
            278 413 rmoveto
            -75 42 -38 49 3 75 rrcurveto
            61 2 50 55 74 hhcurveto
            81 47 -60 -63 -73 -42 -46 -59 -44 hvcurveto
            -15 -11 rlineto
            return
          </CharString>
          <CharString index="201">
            -81 callgsubr
            120 46 80 return
          </CharString>
          <CharString index="202">
            38 callsubr
            endchar
          </CharString>
          <CharString index="203">
            rmoveto
            14 -63 -13 vlineto
            226 callgsubr
            -97 -43 69 93 vhcurveto
            120 104 vlineto
            137 105 71 142 132 -82 75 -121 return
          </CharString>
          <CharString index="204">
            vvcurveto
            114 callgsubr
            return
          </CharString>
          <CharString index="205">
            113 74 53 64 34 return
          </CharString>
          <CharString index="206">
            78 55 36 57 30 return
          </CharString>
          <CharString index="207">
            -63 callgsubr
            127 hlineto
            -14 -30 -8 -35 -39 vvcurveto
            -144 -60 callgsubr
          </CharString>
          <CharString index="208">
            47 callgsubr
            endchar
          </CharString>
          <CharString index="209">
            -68 -26 -47 -63 -85 vvcurveto
            -115 81 -76 113 85 56 40 55 28 vhcurveto
            -157 58 456 vlineto
            50 39 25 58 71 vvcurveto
            -61 hlineto
            -97 -66 -68 -130 -128 -67 63 87 98 80 46 103 vhcurveto
            131 166 hlineto
            endchar
          </CharString>
          <CharString index="210">
            -206 1 callgsubr
          </CharString>
          <CharString index="211">
            rmoveto
            -105 -92 70 119 return
          </CharString>
          <CharString index="212">
            -54 438 -129 -143 vlineto
            277 callsubr
            -86 vvcurveto
            -119 79 -99 149 129 73 79 82 16 vhcurveto
            -62 hlineto
            -51 -14 -51 -56 -91 hhcurveto
            -109 -56 73 91 89 56 75 return
          </CharString>
          <CharString index="213">
            193 callgsubr
            160 return
          </CharString>
          <CharString index="214">
            92 -28 -30 callsubr
            return
          </CharString>
          <CharString index="215">
            rmoveto
            287 callgsubr
            204 callgsubr
            -984 211 callgsubr
            208 callsubr
            return
          </CharString>
          <CharString index="216">
            -32 callgsubr
            -203 -513 hlineto
            -261 143 3 3 rlineto
            80 61 156 callgsubr
            -91 57 -64 97 -54 vhcurveto
            -210 -161 rlineto
            -9 73 vlineto
            186 143 return
          </CharString>
          <CharString index="217">
            rmoveto
            56 hlineto
            50 5 25 27 43 hhcurveto
            33 27 -18 -44 -49 -32 -33 -36 -32 hvcurveto
            -119 -102 rlineto
            -38 252 45 -192 vlineto
            84 67 rlineto
            64 46 38 41 59 vvcurveto
            58 -41 42 -73 -86 -43 -55 -64 -5 vhcurveto
            endchar
          </CharString>
          <CharString index="218">
            -73 72 123 133 89 62 135 hvcurveto
            152 -444 64 686 hlineto
            return
          </CharString>
          <CharString index="219">
            -63 49 -38 75 vhcurveto
            93 43 -87 hlineto
            -49 -29 22 38 38 29 22 49 hvcurveto
            46 return
          </CharString>
          <CharString index="220">
            -126 -32 vlineto
            -167 -122 -88 -172 return
          </CharString>
          <CharString index="221">
            147 callgsubr
            -84 -56 return
          </CharString>
          <CharString index="222">
            -380 76 hmoveto
            71 705 -71 hlineto
            return
          </CharString>
          <CharString index="223">
            rmoveto
            -110 -55 67 97 hvcurveto
            3 0 4 3 vvcurveto
            103 1 68 35 80 vvcurveto
            105 -95 29 -107 vhcurveto
            -354 136 722 -342 hlineto
            -127 -60 -91 -112 vhcurveto
            234 -126 203 callsubr
            return
          </CharString>
          <CharString index="224">
            317 40 callgsubr
            return
          </CharString>
          <CharString index="225">
            -215 261 callsubr
            321 -270 rlineto
            -49 -10 -53 -56 -92 hhcurveto
            213 428 rmoveto
            54 -559 -9 callgsubr
            -151 76 -98 149 return
          </CharString>
          <CharString index="226">
            137 vlineto
            201 104 -110 -180 -180 -104 -110 -201 hvcurveto
            return
          </CharString>
          <CharString index="227">
            -54 173 -237 vlineto
            -145 68 -94 134 130 callsubr
            253 260 17 14 13 17 10 19 rlinecurve
            -301 192 callgsubr
            48 97 119 return
          </CharString>
          <CharString index="228">
            101 -15 -74 82 -133 hhcurveto
            -136 -68 -83 -86 -14 hvcurveto
            61 hlineto
            53 13 47 61 97 hhcurveto
            111 55 -78 -86 -91 -55 -78 -111 -94 -54 59 54 -9 hvcurveto
            -61 hlineto
            -84 9 76 -84 133 hhcurveto
            return
          </CharString>
          <CharString index="229">
            rmoveto
            -410 -239 vlineto
            612 423 rmoveto
            57 -411 vlineto
            -409 -705 rlineto
            77 hlineto
            99 170 rlineto
            271 -170 373 58 -303 269 273 56 -273 265 hlineto
            endchar
          </CharString>
          <CharString index="230">
            -20 -27 -11 -34 -38 vvcurveto
            76 callgsubr
            return
          </CharString>
          <CharString index="231">
            -14 callsubr
            hvcurveto
            78 callgsubr
          </CharString>
          <CharString index="232">
            44 150 callsubr
            return
          </CharString>
          <CharString index="233">
            -69 -116 vhcurveto
            return
          </CharString>
          <CharString index="234">
            190 callsubr
            284 -145 -42 12 -125 179 callgsubr
            return
          </CharString>
          <CharString index="235">
            -102 callgsubr
            endchar
          </CharString>
          <CharString index="236">
            rmoveto
            139 91 42 92 vhcurveto
            23 76 hlineto
            -103 -71 -46 -77 -32 hvcurveto
            113 -71 -546 71 vlineto
            return
          </CharString>
          <CharString index="237">
            7 6 0 1 6 vhcurveto
            -221 -220 rlineto
            72 hlineto
            return
          </CharString>
          <CharString index="238">
            hhcurveto
            98 callsubr
            hvcurveto
            -236 64 686 return
          </CharString>
          <CharString index="239">
            vlineto
            -22 callsubr
            return
          </CharString>
          <CharString index="240">
            -138 79 -105 return
          </CharString>
          <CharString index="241">
            219 callsubr
            478 hmoveto
            -132 -87 -86 -117 -122 -81 82 136 136 81 82 122 117 87 -85 -133 vhcurveto
            endchar
          </CharString>
          <CharString index="242">
            -111 -15 callsubr
            return
          </CharString>
          <CharString index="243">
            65 -33 callgsubr
            return
          </CharString>
          <CharString index="244">
            vlineto
            -115 66 -81 117 116 70 81 115 vhcurveto
            112 return
          </CharString>
          <CharString index="245">
            821 rmoveto
            73 188 callsubr
            83 -53 56 -84 -101 -44 -72 -74 vhcurveto
            -4 0 -4 -4 vvcurveto
            144 -96 -52 11 -108 254 callgsubr
            return
          </CharString>
          <CharString index="246">
            257 185 rmoveto
            -67 -49 43 64 67 53 42 73 hvcurveto
            103 -72 hlineto
            -90 -42 -54 -71 vhcurveto
            return
          </CharString>
          <CharString index="247">
            rmoveto
            54 -707 -54 432 -133 -131 vlineto
            -88 -92 -33 -106 259 callgsubr
            hvcurveto
            -69 callsubr
            return
          </CharString>
          <CharString index="248">
            62 callgsubr
            endchar
          </CharString>
          <CharString index="249">
            -54 431 -132 -131 hlineto
            176 callgsubr
            hlineto
            return
          </CharString>
          <CharString index="250">
            -54 444 -110 vlineto
            -74 -45 -60 -96 vhcurveto
            -35 -56 43 hlineto
            120 45 -88 -76 -94 -62 -68 -97 -98 -75 71 93 hvcurveto
            -61 hlineto
            -128 99 -93 138 136 return
          </CharString>
          <CharString index="251">
            4 404 hmoveto
            71 170 110 62 -110 476 -75 hlineto
            -372 -480 rlineto
            -58 376 vlineto
            -301 62 rmoveto
            306 389 rlineto
            -389 vlineto
            endchar
          </CharString>
          <CharString index="252">
            -167 -158 rlineto
            71 hlineto
            214 203 21 18 17 23 11 25 rlinecurve
            -223 vlineto
            return
          </CharString>
          <CharString index="253">
            156 callsubr
            -106 return
          </CharString>
          <CharString index="254">
            -129 -143 hlineto
            -93 -70 -40 -86 return
          </CharString>
          <CharString index="255">
            vhcurveto
            167 callsubr
            return
          </CharString>
          <CharString index="256">
            126 callsubr
            -640 -250 -107 callgsubr
            882 427 rmoveto
            98 return
          </CharString>
          <CharString index="257">
            74 hvcurveto
            101 -88 hlineto
            -91 -42 -53 return
          </CharString>
          <CharString index="258">
            101 66 50 66 31 hvcurveto
            -220 return
          </CharString>
          <CharString index="259">
            rmoveto
            -95 -73 65 113 107 76 65 92 120 49 -92 -83 hvcurveto
            -1 vlineto
            -55 -25 -65 -58 -33 vhcurveto
            -6 3 -12 -12 rlineto
            -7 -20 -22 -5 -26 hhcurveto
            endchar
          </CharString>
          <CharString index="260">
            vvcurveto
            84 32 callsubr
            return
          </CharString>
          <CharString index="261">
            rmoveto
            14 -62 -13 vlineto
            226 callgsubr
            -97 -44 69 93 vhcurveto
            120 104 vlineto
            138 105 71 142 132 -82 75 -121 -22 -21 -3 -6 -18 hvcurveto
            return
          </CharString>
          <CharString index="262">
            rmoveto
            -77 45 -8 vlineto
            -37 -13 -18 -33 vhcurveto
            -33 vlineto
            84 24 77 96 -26 hvcurveto
            endchar
          </CharString>
          <CharString index="263">
            283 callgsubr
            -66 return
          </CharString>
          <CharString index="264">
            rmoveto
            -32 callgsubr
            return
          </CharString>
          <CharString index="265">
            hhcurveto
            161 callsubr
          </CharString>
          <CharString index="266">
            hlineto
            -125 64 -90 128 117 72 79 return
          </CharString>
          <CharString index="267">
            -3 22 hhcurveto
            119 return
          </CharString>
          <CharString index="268">
            157 105 105 154 hvcurveto
            -77 callgsubr
          </CharString>
          <CharString index="269">
            39 callgsubr
            endchar
          </CharString>
          <CharString index="270">
            99 hmoveto
            70 484 137 62 -137 22 hlineto
            87 33 38 104 -2 vhcurveto
            62 vlineto
            -146 5 -61 -65 -120 vvcurveto
            -27 -81 -62 81 vlineto
            return
          </CharString>
          <CharString index="271">
            71 250 hlineto
            221 -250 rlineto
            90 hlineto
            -258 276 251 270 rlineto
            -87 hlineto
            -217 -240 rlineto
            434 -71 vlineto
            endchar
          </CharString>
          <CharString index="272">
            rmoveto
            80 58 55 82 79 57 -56 -78 -78 -57 -56 224 callgsubr
            return
          </CharString>
          <CharString index="273">
            269 callgsubr
            101 -92 145 return
          </CharString>
          <CharString index="274">
            427 -70 -427 vlineto
            return
          </CharString>
          <CharString index="275">
            25 callgsubr
            120 48 80 97 return
          </CharString>
          <CharString index="276">
            -59 hlineto
            -113 -93 -76 -115 -131 -83 82 140 3 0 4 1 4 vhcurveto
            127 3 78 55 137 vvcurveto
            84 vlineto
            endchar
          </CharString>
          <CharString index="277">
            -111 -121 vlineto
            -90 -81 -30 -93 -94 86 -22 110 86 75 -14 -82 -58 -43 -35 -91 -120 -57 54 66 -2 hvcurveto
            -61 hlineto
            return
          </CharString>
          <CharString index="278">
            -57 callgsubr
            197 -398 64 686 vlineto
            endchar
          </CharString>
          <CharString index="279">
            239 callgsubr
            -90 -93 -34 -107 210 callgsubr
            hvcurveto
            51 hlineto
            return
          </CharString>
          <CharString index="280">
            125 -67 68 -83 13 vhcurveto
            134 vlineto
            return
          </CharString>
          <CharString index="281">
            74 callgsubr
            hvcurveto
            return
          </CharString>
          <CharString index="282">
            -65 -34 -47 -67 -107 vvcurveto
            -150 103 -85 321 callsubr
            69 119 137 88 65 136 hvcurveto
            return
          </CharString>
          <CharString index="283">
            vvcurveto
            -116 98 -57 127 118 82 62 98 35 vhcurveto
            -90 39 81 -54 118 hhcurveto
            98 callsubr
            hvcurveto
            -236 return
          </CharString>
          <CharString index="284">
            -65 -33 -38 -62 -78 vvcurveto
            return
          </CharString>
          <CharString index="285">
            hlineto
            106 callsubr
            return
          </CharString>
          <CharString index="286">
            rmoveto
            -134 313 callgsubr
            3 0 4 4 vvcurveto
            324 callgsubr
            55 137 vvcurveto
            84 -54 callsubr
            return
          </CharString>
          <CharString index="287">
            rmoveto
            315 callgsubr
            -48 -57 callsubr
            160 return
          </CharString>
          <CharString index="288">
            190 callsubr
            224 -133 -50 15 -126 284 callsubr
            return
          </CharString>
          <CharString index="289">
            47 callsubr
            316 -268 rlineto
            -3 0 -3 -1 -3 vhcurveto
            -48 -13 -50 -50 -86 hhcurveto
            return
          </CharString>
          <CharString index="290">
            vvcurveto
            -116 95 -57 129 126 77 54 96 34 vhcurveto
            278 callgsubr
            return
          </CharString>
          <CharString index="291">
            54 -203 -371 vlineto
            -126 return
          </CharString>
          <CharString index="292">
            vvcurveto
            67 56 22 63 vhcurveto
            186 177 144 54 -644 -54 438 147 callsubr
            return
          </CharString>
          <CharString index="293">
            262 9 callsubr
            return
          </CharString>
          <CharString index="294">
            -139 91 -85 131 7 6 0 1 7 return
          </CharString>
          <CharString index="295">
            43 41 64 60 36 -41 -54 2 vhcurveto
            46 hlineto
            return
          </CharString>
          <CharString index="296">
            190 callgsubr
            63 vlineto
            return
          </CharString>
          <CharString index="297">
            -603 -112 737 rmoveto
            return
          </CharString>
          <CharString index="298">
            428 316 callgsubr
            return
          </CharString>
          <CharString index="299">
            91 callsubr
            -48 84 -116 return
          </CharString>
          <CharString index="300">
            rmoveto
            -80 -60 49 83 76 52 49 72 5 hvcurveto
            74 6 54 29 27 45 rrcurveto
            -207 vlineto
            -59 -43 -76 -96 vhcurveto
            return
          </CharString>
          <CharString index="301">
            126 586 rmoveto
            77 -47 24 vlineto
            35 13 18 35 vhcurveto
            34 vlineto
            -59 -33 -31 -71 -24 3 -28 7 -34 hvcurveto
            return
          </CharString>
          <CharString index="302">
            87 33 45 67 59 36 -44 -61 -1 vhcurveto
            57 hlineto
            94 2 -57 65 -97 hhcurveto
            -110 -49 -75 -111 hvcurveto
            return
          </CharString>
          <CharString index="303">
            315 callgsubr
            -48 -57 callsubr
            160 490 -363 -59 callsubr
          </CharString>
          <CharString index="304">
            315 218 callsubr
            return
          </CharString>
          <CharString index="305">
            rmoveto
            200 -648 70 648 201 57 -471 hlineto
            return
          </CharString>
          <CharString index="306">
            93 67 71 107 hvcurveto
            return
          </CharString>
          <CharString index="307">
            232 callsubr
            vlineto
            return
          </CharString>
          <CharString index="308">
            55 hlineto
            -12 34 -6 33 30 vvcurveto
            92 64 33 52 61 63 -50 -107 -165 -133 -99 -181 vhcurveto
            return
          </CharString>
          <CharString index="309">
            -54 141 -686 64 return
          </CharString>
          <CharString index="310">
            rmoveto
            0 callsubr
            return
          </CharString>
          <CharString index="311">
            64 0 callsubr
            return
          </CharString>
          <CharString index="312">
            -54 367 -210 -103 vlineto
            -106 -79 -61 -108 -100 70 -68 106 107 64 72 129 hvcurveto
            84 return
          </CharString>
          <CharString index="313">
            241 callgsubr
            -2 21 -6 19 hvcurveto
            return
          </CharString>
          <CharString index="314">
            360 262 rmoveto
            -105 -47 72 115 hvcurveto
            237 301 -262 vlineto
            -88 -52 -74 -97 vhcurveto
            return
          </CharString>
          <CharString index="315">
            314 callsubr
            36 312 callgsubr
            return
          </CharString>
          <CharString index="316">
            -47 callsubr
            -98 return
          </CharString>
          <CharString index="317">
            -15 2 -18 3 -15 return
          </CharString>
          <CharString index="318">
            rmoveto
            292 134 vlineto
            126 45 -56 -91 -88 -45 -57 -126 hvcurveto
            242 145 rmoveto
            return
          </CharString>
          <CharString index="319">
            77 -35 85 39 42 7 10 23 vhcurveto
            49 vlineto
            -7 -18 -40 -8 -38 hhcurveto
            -58 -51 21 59 63 return
          </CharString>
          <CharString index="320">
            -81 42 77 -48 110 hhcurveto
            109 71 296 callgsubr
          </CharString>
          <CharString index="321">
            -113 -52 74 119 hvcurveto
            182 vlineto
            319 -268 rlineto
            -62 -20 -53 -45 -81 hhcurveto
            return
          </CharString>
          <CharString index="322">
            -54 123 -226 vlineto
            -111 65 -83 117 118 65 82 112 vhcurveto
            226 return
          </CharString>
          <CharString index="323">
            947 411 rmoveto
            -46 hlineto
            89 -21 -71 62 -99 160 callgsubr
            235 return
          </CharString>
          <CharString index="324">
            vhcurveto
            -1 16 20 0 27 hhcurveto
            140 112 56 return
          </CharString>
          <CharString index="325">
            262 rmoveto
            59 callsubr
            return
          </CharString>
          <CharString index="326">
            -30 callsubr
            hvcurveto
            return
          </CharString>
          <CharString index="327">
            -1 14 hhcurveto
            287 callgsubr
            vlineto
            return
          </CharString>
          <CharString index="328">
            -95 70 -65 106 105 66 74 127 return
          </CharString>
          <CharString index="329">
            -372 vlineto
            -130 -102 -80 -119 return
          </CharString>
          <CharString index="330">
            109 63 70 132 return
          </CharString>
          <CharString index="331">
            -54 -49 -62 -25 hvcurveto
            return
          </CharString>
          <CharString index="332">
            9 9 0 1 8 return
          </CharString>
          <CharString index="333">
            -679 rmoveto
            -101 callgsubr
            return
          </CharString>
          <CharString index="334">
            rmoveto
            203 callgsubr
            vlineto
            177 callsubr
            -132 101 -71 124 return
          </CharString>
          <CharString index="335">
            417 -229 vlineto
            53 -25 -52 41 -83 hhcurveto
            -111 -87 -79 -122 -89 42 -66 return
          </CharString>
          <CharString index="336">
            rmoveto
            98 214 -270 -289 vlineto
            45 34 30 58 80 vvcurveto
            419 98 rmoveto
            54 return
          </CharString>
          <CharString index="337">
            114 295 rmoveto
            101 175 rlineto
            -70 hlineto
            -100 -175 100 -175 rlineto
            70 hlineto
            return
          </CharString>
          <CharString index="338">
            119 callsubr
            endchar
          </CharString>
          <CharString index="339">
            -180 -336 return
          </CharString>
          <CharString index="340">
            174 callsubr
            -39 callsubr
            return
          </CharString>
          <CharString index="341">
            rmoveto
            51 vlineto
            -5 -16 -27 -6 -28 hhcurveto
            -69 -61 31 82 64 44 51 80 hvcurveto
            23 return
          </CharString>
          <CharString index="342">
            hlineto
            10 30 6 33 37 vvcurveto
            123 -62 86 -100 15 vhcurveto
            138 vlineto
            endchar
          </CharString>
          <CharString index="343">
            vlineto
            -4 -18 -2 -20 -20 vvcurveto
            -144 96 -92 return
          </CharString>
          <CharString index="344">
            -117 -82 vlineto
            -145 -121 -77 -158 return
          </CharString>
          <CharString index="345">
            -187 -155 vlineto
            return
          </CharString>
          <CharString index="346">
            rmoveto
            -66 -49 45 70 72 52 45 75 hvcurveto
            101 -89 hlineto
            -90 -42 -53 -71 vhcurveto
            return
          </CharString>
          <CharString index="347">
            rmoveto
            -73 -47 55 79 hvcurveto
            231 240 -231 vlineto
            -79 -44 -55 -76 vhcurveto
            return
          </CharString>
          <CharString index="348">
            -54 callsubr
            -94 -27 callgsubr
            return
          </CharString>
          <CharString index="349">
            rmoveto
            -5 0 -4 -4 vvcurveto
            -328 274 rlineto
            328 hlineto
            204 hmoveto
            54 return
          </CharString>
          <CharString index="350">
            -45 hlineto
            -62 -57 24 68 78 73 16 62 hvcurveto
            174 180 hlineto
            endchar
          </CharString>
          <CharString index="351">
            98 175 -98 175 rlineto
            -72 hlineto
            103 -175 -103 -175 rlineto
            endchar
          </CharString>
          <CharString index="352">
            218 153 119 198 return
          </CharString>
          <CharString index="353">
            -54 367 -234 -103 return
          </CharString>
          <CharString index="354">
            369 rmoveto
            54 return
          </CharString>
          <CharString index="355">
            576 hmoveto
            330 vlineto
            84 1 46 97 118 hhcurveto
            89 73 -66 -106 return
          </CharString>
          <CharString index="356">
            hlineto
            -89 -66 -37 -81 -61 42 -38 47 -20 hvcurveto
            -77 -47 -37 -81 -94 vvcurveto
            return
          </CharString>
          <CharString index="357">
            -234 14 -167 rmoveto
            68 hlineto
            275 1107 rlineto
            -69 hlineto
            endchar
          </CharString>
          <CharString index="358">
            -81 116 116 71 81 115 vhcurveto
            return
          </CharString>
          <CharString index="359">
            81 115 hvcurveto
            112 210 -447 return
          </CharString>
          <CharString index="360">
            hmoveto
            70 546 -70 return
          </CharString>
          <CharString index="361">
            -167 -119 return
          </CharString>
          <CharString index="362">
            -45 hlineto
            -62 -57 24 68 78 73 16 62 hvcurveto
            168 180 hlineto
            return
          </CharString>
          <CharString index="363">
            272 callsubr
            endchar
          </CharString>
          <CharString index="364">
            54 199 callgsubr
          </CharString>
          <CharString index="365">
            141 173 return
          </CharString>
          <CharString index="366">
            hvcurveto
            -59 -26 -54 return
          </CharString>
          <CharString index="367">
            537 hmoveto
            44 callsubr
            return
          </CharString>
          <CharString index="368">
            317 258 47 callsubr
            return
          </CharString>
          <CharString index="369">
            -334 120 hmoveto
            73 705 -179 -65 106 hlineto
            endchar
          </CharString>
          <CharString index="370">
            -162 rcurveline
            297 callsubr
            return
          </CharString>
          <CharString index="371">
            -270 -81 -112 -137 return
          </CharString>
          <CharString index="372">
            hlineto
            -106 -43 46 85 hvcurveto
            81 return
          </CharString>
          <CharString index="373">
            hlineto
            138 -75 89 -135 return
          </CharString>
          <CharString index="374">
            248 callgsubr
            39 96 return
          </CharString>
          <CharString index="375">
            -22 hlineto
            -132 -72 return
          </CharString>
          <CharString index="376">
            197 -194 rmoveto
            return
          </CharString>
          <CharString index="377">
            7 7 0 1 6 return
          </CharString>
          <CharString index="378">
            -20 24 hvcurveto
            endchar
          </CharString>
          <CharString index="379">
            254 callsubr
            252 callgsubr
            return
          </CharString>
          <CharString index="380">
            -54 424 113 callsubr
            return
          </CharString>
          <CharString index="381">
            -53 rmoveto
            -65 42 319 callgsubr
            return
          </CharString>
          <CharString index="382">
            564 hmoveto
            382 179 vlineto
            40 33 9 18 25 hvcurveto
            return
          </CharString>
          <CharString index="383">
            290 vlineto
            139 72 66 101 96 63 -62 -120 vhcurveto
            return
          </CharString>
          <CharString index="384">
            132 callgsubr
            -35 -41 -70 return
          </CharString>
          <CharString index="385">
            hlineto
            295 callgsubr
            hlineto
            return
          </CharString>
          <CharString index="386">
            70 65 26 vhcurveto
            -239 vlineto
            endchar
          </CharString>
          <CharString index="387">
            96 117 90 return
          </CharString>
          <CharString index="388">
            -133 -125 return
          </CharString>
          <CharString index="389">
            hlineto
            295 callsubr
            return
          </CharString>
          <CharString index="390">
            vvcurveto
            -88 callgsubr
            return
          </CharString>
          <CharString index="391">
            254 callgsubr
            100 37 -12 -174 110 hvcurveto
            return
          </CharString>
          <CharString index="392">
            307 304 callgsubr
            return
          </CharString>
          <CharString index="393">
            -1 callsubr
            133 116 callgsubr
            return
          </CharString>
          <CharString index="394">
            rmoveto
            -198 234 198 hlineto
            return
          </CharString>
          <CharString index="395">
            302 callsubr
            -166 vlineto
            -83 return
          </CharString>
          <CharString index="396">
            rmoveto
            -134 -78 80 return
          </CharString>
          <CharString index="397">
            rmoveto
            93 90 -93 hlineto
            return
          </CharString>
          <CharString index="398">
            vlineto
            63 -1 rlineto
            return
          </CharString>
          <CharString index="399">
            686 223 288 callgsubr
            return
          </CharString>
          <CharString index="400">
            123 -48 84 -117 -22 -19 255 callgsubr
            return
          </CharString>
          <CharString index="401">
            -57 -64 hlineto
            -48 -24 -33 -65 vhcurveto
            -188 252 return
          </CharString>
          <CharString index="402">
            291 callgsubr
            -18 hvcurveto
            -48 14 -35 31 49 vvcurveto
            return
          </CharString>
          <CharString index="403">
            127 77 70 65 25 vhcurveto
            -239 vlineto
            endchar
          </CharString>
          <CharString index="404">
            69 hlineto
            146 154 return
          </CharString>
          <CharString index="405">
            -5 callgsubr
            1 54 rlineto
            return
          </CharString>
          <CharString index="406">
            -372 -357 rlineto
            -4 return
          </CharString>
          <CharString index="407">
            510 64 -510 hlineto
            return
          </CharString>
          <CharString index="408">
            56 141 104 return
          </CharString>
          <CharString index="409">
            -184 -272 return
          </CharString>
          <CharString index="410">
            48 vhcurveto
            29 -55 vlineto
            -1 -10 0 -10 -10 vvcurveto
            return
          </CharString>
          <CharString index="411">
            159 742 rmoveto
            -742 63 742 vlineto
            return
          </CharString>
          <CharString index="412">
            288 callsubr
            -47 -57 -76 return
          </CharString>
          <CharString index="413">
            -220 61 267 callsubr
            118 return
          </CharString>
          <CharString index="414">
            -92 -83 hvcurveto
            -1 vlineto
            -77 -50 -97 -119 vhcurveto
            return
          </CharString>
          <CharString index="415">
            hlineto
            45 38 25 60 79 vvcurveto
            99 vlineto
            endchar
          </CharString>
          <CharString index="416">
            69 hlineto
            -157 162 rlineto
            return
          </CharString>
          <CharString index="417">
            447 vlineto
            -154 94 -102 return
          </CharString>
          <CharString index="418">
            80 299 callgsubr
            return
          </CharString>
          <CharString index="419">
            -111 hhcurveto
            -126 return
          </CharString>
          <CharString index="420">
            71 740 -71 hlineto
            return
          </CharString>
          <CharString index="421">
            113 74 67 81 return
          </CharString>
          <CharString index="422">
            438 rmoveto
            54 return
          </CharString>
          <CharString index="423">
            147 rmoveto
            85 return
          </CharString>
          <CharString index="424">
            -84 -88 -45 -124 -33 6 -35 12 -34 return
          </CharString>
          <CharString index="425">
            -117 89 -46 93 28 32 5 7 20 return
          </CharString>
          <CharString index="426">
            -232 -103 vlineto
            -49 -43 -13 -25 -32 hvcurveto
            return
          </CharString>
          <CharString index="427">
            -43 -37 -60 vvcurveto
            -63 49 -38 75 vhcurveto
            93 return
          </CharString>
          <CharString index="428">
            157 vhcurveto
            30 52 -22 hlineto
            -131 -73 return
          </CharString>
          <CharString index="429">
            -1 rlineto
            -271 vlineto
            endchar
          </CharString>
          <CharString index="430">
            rmoveto
            27 -20 20 return
          </CharString>
        <CharString name=".notdef">
          -103 0 vmoveto
          500 700 -500 hlineto
          250 -305 rmoveto
          -170 255 rlineto
          340 hlineto
          -140 -300 rmoveto
          170 255 rlineto
          -510 vlineto
          -370 -45 rmoveto
          170 255 170 -255 rlineto
          -370 555 rmoveto
          170 -255 -170 -255 rlineto
          endchar
        </CharString>
        <CharString name="A">
          -52 callsubr
          -21 56 92 callgsubr
        </CharString>
        <CharString name="AE">
          271 455 635 122 callsubr
        </CharString>
        <CharString name="Aacute">
          -52 callsubr
          -195 629 rmoveto
          -52 vlineto
          205 121 rlineto
          59 vlineto
          -31 -701 92 callgsubr
        </CharString>
        <CharString name="Abreve">
          -52 callsubr
          -25 728 -73 callgsubr
          4 -672 92 callgsubr
        </CharString>
        <CharString name="Acircumflex">
          -52 callsubr
          -26 651 -55 callgsubr
          5 -544 92 callgsubr
        </CharString>
        <CharString name="Adieresis">
          -52 callsubr
          -239 612 -98 callsubr
          62 -556 92 callgsubr
        </CharString>
        <CharString name="Agrave">
          -52 callsubr
          -338 698 rmoveto
          205 -121 rlineto
          52 vlineto
          -205 128 rlineto
          317 -701 92 callgsubr
        </CharString>
        <CharString name="Amacron">
          -52 callsubr
          -330 637 rmoveto
          339 50 -339 hlineto
          309 -631 92 callgsubr
        </CharString>
        <CharString name="Aogonek">
          41 23 hmoveto
          75 hlineto
          63 172 rlineto
          322 hlineto
          63 -170 rlineto
          -72 -10 -29 -39 -49 vvcurveto
          -63 49 -38 74 vhcurveto
          93 43 -87 hlineto
          -48 -30 22 38 38 30 22 48 hvcurveto
          46 38 hlineto
          -258 685 rlineto
          -79 hlineto
          180 -461 rmoveto
          -281 hlineto
          140 380 rlineto
          endchar
        </CharString>
        <CharString name="Aring">
          -52 callsubr
          -97 697 rmoveto
          -41 -27 -25 -37 -36 -28 25 41 41 28 25 36 37 27 -25 -41 vhcurveto
          -164 hmoveto
          -62 45 -38 55 55 46 38 62 63 -46 38 -55 -55 -45 -38 -63 vhcurveto
          240 -641 92 callgsubr
        </CharString>
        <CharString name="Atilde">
          -52 callsubr
          -305 593 -96 callgsubr
          284 -537 92 callgsubr
        </CharString>
        <CharString name="B">
          -12 476 198 rmoveto
          -87 -61 -51 -106 vhcurveto
          -162 277 160 hlineto
          106 63 -54 -85 hvcurveto
          -16 321 rmoveto
          -79 -51 -50 -100 vhcurveto
          -162 256 158 hlineto
          109 46 -52 -75 hvcurveto
          87 -329 rmoveto
          88 -61 70 -87 17 vhcurveto
          72 16 60 52 97 vvcurveto
          103 -67 72 -146 vhcurveto
          -242 -705 245 hlineto
          152 74 81 109 hvcurveto
          endchar
        </CharString>
        <CharString name="C">
          -60 callsubr
          endchar
        </CharString>
        <CharString name="CR">
          -343 endchar
        </CharString>
        <CharString name="Cacute">
          -60 callsubr
          295 449 -62 callsubr
        </CharString>
        <CharString name="Ccaron">
          -60 callsubr
          330 468 -56 callgsubr
        </CharString>
        <CharString name="Ccedilla">
          162 53 352 rmoveto
          -201 124 -145 183 -12 vhcurveto
          -106 49 vlineto
          45 callsubr
          67 vlineto
          162 8 102 90 42 133 rrcurveto
          -74 hlineto
          -96 -36 -85 -70 -133 hhcurveto
          -146 -114 112 182 183 114 112 146 133 85 -69 -97 36 hvcurveto
          74 hlineto
          139 -44 -109 92 -174 hhcurveto
          -197 -136 -148 -212 hvcurveto
          endchar
        </CharString>
        <CharString name="Cdotaccent">
          -60 callsubr
          329 432 -44 callgsubr
        </CharString>
        <CharString name="D">
          100 callgsubr
          endchar
        </CharString>
        <CharString name="Dcaron">
          100 callgsubr
          85 757 -56 callgsubr
        </CharString>
        <CharString name="Dcroat">
          68 callgsubr
        </CharString>
        <CharString name="E">
          -61 callgsubr
          endchar
        </CharString>
        <CharString name="Eacute">
          -61 callgsubr
          -222 153 -62 callsubr
        </CharString>
        <CharString name="Ebreve">
          -61 callgsubr
          -52 252 -73 callgsubr
          endchar
        </CharString>
        <CharString name="Ecaron">
          -61 callgsubr
          -187 172 -56 callgsubr
        </CharString>
        <CharString name="Ecircumflex">
          -61 callgsubr
          -53 175 -55 callgsubr
          endchar
        </CharString>
        <CharString name="Edieresis">
          -61 callgsubr
          -265 136 -98 callsubr
          endchar
        </CharString>
        <CharString name="Edotaccent">
          -61 callgsubr
          -187 136 -44 callgsubr
        </CharString>
        <CharString name="Egrave">
          -61 callgsubr
          -364 222 -24 callgsubr
        </CharString>
        <CharString name="Emacron">
          -61 callgsubr
          -356 161 104 callgsubr
        </CharString>
        <CharString name="Eogonek">
          -105 452 705 rmoveto
          -376 -705 225 hlineto
          -22 -17 -13 -26 -33 vvcurveto
          112 callsubr
          14 10 58 -305 269 275 55 -275 266 305 hlineto
          endchar
        </CharString>
        <CharString name="Eth">
          68 callgsubr
        </CharString>
        <CharString name="Euro">
          222 113 352 rmoveto
          -22 1 -21 3 -20 vhcurveto
          -98 -38 105 hlineto
          -155 37 121 -103 164 hhcurveto
          174 110 92 139 43 hvcurveto
          -74 hlineto
          -96 -36 -85 -70 -133 hhcurveto
          -117 -96 71 122 -34 hvcurveto
          258 38 -266 hlineto
          -3 20 -2 21 22 vvcurveto
          18 1 17 2 16 vhcurveto
          268 38 -261 hlineto
          130 31 98 76 121 hhcurveto
          133 85 -69 -97 36 hvcurveto
          74 hlineto
          139 -43 -110 92 -174 hhcurveto
          -168 -124 -108 -163 -32 hvcurveto
          -103 -38 97 hlineto
          -2 -16 -1 -18 -17 vvcurveto
          endchar
        </CharString>
        <CharString name="F">
          -107 76 hmoveto
          71 324 270 55 -270 269 312 57 -383 hlineto
          endchar
        </CharString>
        <CharString name="G">
          179 53 352 -63 callsubr
          endchar
        </CharString>
        <CharString name="Gbreve">
          179 53 352 -63 callsubr
          474 548 -73 callgsubr
          endchar
        </CharString>
        <CharString name="Gdotaccent">
          179 53 352 -63 callsubr
          338 432 -44 callgsubr
        </CharString>
        <CharString name="H">
          73 529 hmoveto
          70 705 -70 -313 -382 313 -71 -705 71 334 382 hlineto
          endchar
        </CharString>
        <CharString name="I">
          115 callsubr
          endchar
        </CharString>
        <CharString name="Iacute">
          115 callsubr
          2 96 -62 callsubr
        </CharString>
        <CharString name="Icircumflex">
          115 callsubr
          170 118 -55 callgsubr
          endchar
        </CharString>
        <CharString name="Idieresis">
          115 callsubr
          -42 79 -98 callsubr
          endchar
        </CharString>
        <CharString name="Idotaccent">
          115 callsubr
          36 79 -44 callgsubr
        </CharString>
        <CharString name="Igrave">
          115 callsubr
          -141 165 -24 callgsubr
        </CharString>
        <CharString name="Imacron">
          115 callsubr
          -133 104 104 callgsubr
        </CharString>
        <CharString name="Iogonek">
          -380 188 -152 rmoveto
          -87 hlineto
          -49 -29 22 38 38 29 22 49 hvcurveto
          46 737 -71 -698 278 callsubr
          endchar
        </CharString>
        <CharString name="Itilde">
          115 callsubr
          -108 60 -96 callgsubr
          endchar
        </CharString>
        <CharString name="J">
          -136 325 170 rmoveto
          -55 -25 -58 -85 -87 -33 62 79 vhcurveto
          -70 hlineto
          -129 72 -76 121 113 65 72 105 vhcurveto
          535 -71 vlineto
          endchar
        </CharString>
        <CharString name="K">
          -44 455 hmoveto
          180 callgsubr
        </CharString>
        <CharString name="L">
          -180 76 705 rmoveto
          174 callgsubr
          endchar
        </CharString>
        <CharString name="Lacute">
          -180 76 705 rmoveto
          174 callgsubr
          -48 96 -62 callsubr
        </CharString>
        <CharString name="Lcaron">
          -162 266 705 91 callgsubr
          -271 hmoveto
          174 callgsubr
          endchar
        </CharString>
        <CharString name="Ldot">
          -180 76 705 rmoveto
          174 callgsubr
          212 -397 -44 callgsubr
        </CharString>
        <CharString name="Lslash">
          -161 95 705 rmoveto
          -310 vlineto
          -85 -35 rlineto
          -71 vlineto
          85 35 rlineto
          -324 327 56 -256 298 vlineto
          139 57 rlineto
          71 vlineto
          -139 -57 rlineto
          280 vlineto
          endchar
        </CharString>
        <CharString name="M">
          233 76 hmoveto
          71 576 hlineto
          240 -576 rlineto
          63 hlineto
          239 578 rlineto
          -578 70 690 -82 vlineto
          -258 -603 -260 603 rlineto
          -83 hlineto
          endchar
        </CharString>
        <CharString name="N">
          77 533 704 34 callsubr
          endchar
        </CharString>
        <CharString name="NULL">
          -603 endchar
        </CharString>
        <CharString name="Nacute">
          77 533 704 34 callsubr
          -298 97 -62 callsubr
        </CharString>
        <CharString name="Ncaron">
          77 533 704 34 callsubr
          -263 116 -56 callgsubr
        </CharString>
        <CharString name="Ntilde">
          77 533 704 34 callsubr
          -408 61 -96 callgsubr
          endchar
        </CharString>
        <CharString name="O">
          -101 callsubr
          endchar
        </CharString>
        <CharString name="OE">
          489 125 352 rmoveto
          183 117 113 154 153 118 -113 -183 -184 -118 -112 -153 -154 -117 112 184 vhcurveto
          921 296 rmoveto
          57 -376 -191 vlineto
          121 -35 -112 78 -131 hhcurveto
          -198 -141 -149 -212 -212 141 -149 198 hvcurveto
          131 1 112 77 35 120 rrcurveto
          -189 376 58 -306 269 276 55 -276 266 vlineto
          endchar
        </CharString>
        <CharString name="Oacute">
          -101 callsubr
          -305 448 -62 callsubr
        </CharString>
        <CharString name="Ocircumflex">
          -101 callsubr
          -136 470 -55 callgsubr
          endchar
        </CharString>
        <CharString name="Odieresis">
          -101 callsubr
          -349 431 -98 callsubr
          endchar
        </CharString>
        <CharString name="Ograve">
          -101 callsubr
          -448 517 -24 callgsubr
        </CharString>
        <CharString name="Ohungarumlaut">
          -101 callsubr
          -156 546 68 callsubr
        </CharString>
        <CharString name="Omacron">
          -101 callsubr
          -440 456 104 callgsubr
        </CharString>
        <CharString name="Oslash">
          188 53 353 rmoveto
          -101 33 -87 57 -63 vhcurveto
          -93 -102 rlineto
          48 hlineto
          70 76 rlineto
          -53 59 79 -31 90 hhcurveto
          197 146 149 212 101 -34 87 -56 63 hvcurveto
          92 102 rlineto
          -47 hlineto
          -70 -77 rlineto
          53 -60 -79 31 -89 hhcurveto
          -197 -146 -149 -211 hvcurveto
          72 hmoveto
          183 117 112 154 71 64 -24 -45 47 vhcurveto
          -389 -427 rlineto
          -40 50 -24 68 83 vvcurveto
          271 -295 rmoveto
          -72 -63 24 45 -48 hvcurveto
          389 427 rlineto
          41 -50 24 -68 -83 vvcurveto
          -183 -118 -112 -153 vhcurveto
          endchar
        </CharString>
        <CharString name="Otilde">
          -101 callsubr
          -415 412 -96 callgsubr
          endchar
        </CharString>
        <CharString name="P">
          -45 147 354 211 callsubr
          123 -71 83 -165 vhcurveto
          -211 -705 71 294 140 hlineto
          154 82 75 130 hvcurveto
          endchar
        </CharString>
        <CharString name="Q">
          188 667 353 rmoveto
          -183 -118 -112 -153 -154 -117 112 183 183 117 112 154 153 118 -112 -183 vhcurveto
          -614 hmoveto
          -212 146 -149 197 37 36 5 10 33 vhcurveto
          158 -148 rlineto
          92 hlineto
          -191 173 rlineto
          108 58 70 116 147 vvcurveto
          211 -146 149 -197 -197 -146 -149 -211 vhcurveto
          endchar
        </CharString>
        <CharString name="R">
          -34 -44 callsubr
          endchar
        </CharString>
        <CharString name="Racute">
          -34 -44 callsubr
          -21 96 -62 callsubr
        </CharString>
        <CharString name="Rcaron">
          -34 -44 callsubr
          14 115 -56 callgsubr
        </CharString>
        <CharString name="S">
          -45 127 536 -53 callgsubr
          endchar
        </CharString>
        <CharString name="Sacute">
          -45 127 536 -53 callgsubr
          118 265 -62 callsubr
        </CharString>
        <CharString name="Scaron">
          -45 127 536 -53 callgsubr
          153 284 -56 callgsubr
        </CharString>
        <CharString name="T">
          -96 18 648 198 callsubr
          endchar
        </CharString>
        <CharString name="Tcaron">
          -96 18 648 198 callsubr
          236 115 -56 callgsubr
        </CharString>
        <CharString name="Thorn">
          -45 147 208 211 callsubr
          122 -71 82 -165 vhcurveto
          -141 148 -70 -705 71 151 140 hlineto
          154 82 73 129 hvcurveto
          endchar
        </CharString>
        <CharString name="U">
          -86 callgsubr
          endchar
        </CharString>
        <CharString name="Uacute">
          -86 callgsubr
          219 96 -62 callsubr
        </CharString>
        <CharString name="Ubreve">
          -86 callgsubr
          389 195 -73 callgsubr
          endchar
        </CharString>
        <CharString name="Ucircumflex">
          -86 callgsubr
          388 118 -55 callgsubr
          endchar
        </CharString>
        <CharString name="Udieresis">
          -86 callgsubr
          176 79 -98 callsubr
          endchar
        </CharString>
        <CharString name="Ugrave">
          -86 callgsubr
          77 165 -24 callgsubr
        </CharString>
        <CharString name="Uhungarumlaut">
          -86 callgsubr
          354 194 68 callsubr
        </CharString>
        <CharString name="Umacron">
          -86 callgsubr
          85 104 104 callgsubr
        </CharString>
        <CharString name="Uogonek">
          61 465 -168 rmoveto
          43 -84 vlineto
          -50 -29 22 38 34 24 23 45 5 hvcurveto
          123 15 92 83 183 vvcurveto
          167 callsubr
          -171 -84 -48 -98 -110 -76 62 157 148 callsubr
          -175 94 -88 118 -19 vhcurveto
          -24 -8 -16 -26 -27 vvcurveto
          -62 47 -41 73 vhcurveto
          endchar
        </CharString>
        <CharString name="Uring">
          -86 callgsubr
          153 164 56 callgsubr
        </CharString>
        <CharString name="Utilde">
          -86 callgsubr
          110 60 -96 callgsubr
          endchar
        </CharString>
        <CharString name="V">
          52 284 hmoveto
          87 hlineto
          262 705 rlineto
          -77 hlineto
          -229 -623 -227 623 rlineto
          -77 hlineto
          endchar
        </CharString>
        <CharString name="W">
          -40 callsubr
          endchar
        </CharString>
        <CharString name="Wacute">
          -40 callsubr
          409 96 -62 callsubr
        </CharString>
        <CharString name="Wcircumflex">
          -40 callsubr
          578 118 -55 callgsubr
          endchar
        </CharString>
        <CharString name="Wdieresis">
          -40 callsubr
          365 79 -98 callsubr
          endchar
        </CharString>
        <CharString name="Wgrave">
          -40 callsubr
          266 165 -24 callgsubr
        </CharString>
        <CharString name="X">
          -37 461 hmoveto
          83 hlineto
          -219 352 214 353 rlineto
          -81 hlineto
          -171 -291 -181 291 rlineto
          -83 hlineto
          215 -346 -213 -359 rlineto
          81 hlineto
          171 297 rlineto
          endchar
        </CharString>
        <CharString name="Y">
          -11 callgsubr
          endchar
        </CharString>
        <CharString name="Yacute">
          -11 callgsubr
          229 96 -62 callsubr
        </CharString>
        <CharString name="Ycircumflex">
          -11 callgsubr
          398 118 -55 callgsubr
          endchar
        </CharString>
        <CharString name="Ydieresis">
          -11 callgsubr
          185 79 -98 callsubr
          endchar
        </CharString>
        <CharString name="Ygrave">
          -11 callgsubr
          86 165 -24 callgsubr
        </CharString>
        <CharString name="Z">
          49 callsubr
          endchar
        </CharString>
        <CharString name="Zacute">
          49 callsubr
          -250 153 -62 callsubr
        </CharString>
        <CharString name="Zcaron">
          49 callsubr
          -215 172 -56 callgsubr
        </CharString>
        <CharString name="Zdotaccent">
          49 callsubr
          -216 136 -44 callgsubr
        </CharString>
        <CharString name="a">
          -99 callsubr
          endchar
        </CharString>
        <CharString name="aacute">
          -99 callsubr
          -238 369 -62 callsubr
        </CharString>
        <CharString name="abreve">
          -99 callsubr
          -68 468 -73 callgsubr
          endchar
        </CharString>
        <CharString name="acircumflex">
          -99 callsubr
          -69 391 -55 callgsubr
          endchar
        </CharString>
        <CharString name="acute">
          -333 33 642 -62 callsubr
        </CharString>
        <CharString name="adieresis">
          -99 callsubr
          -282 352 -98 callsubr
          endchar
        </CharString>
        <CharString name="ae">
          -19 callsubr
          endchar
        </CharString>
        <CharString name="agrave">
          -99 callsubr
          -381 438 -24 callgsubr
        </CharString>
        <CharString name="amacron">
          -99 callsubr
          -373 377 104 callgsubr
        </CharString>
        <CharString name="ampersand">
          76 422 145 rmoveto
          3 19 1 14 -2 13 174 -191 rcurveline
          74 hlineto
          -382 438 rlineto
          -30 34 -23 30 51 vvcurveto
          52 37 48 70 72 43 -44 -73 vhcurveto
          1 -9 0 -9 -1 -11 rrcurveto
          67 hlineto
          1 16 -1 18 -3 16 rrcurveto
          78 -7 -50 77 -123 hhcurveto
          -115 -58 -76 -77 -65 30 -39 34 -39 hvcurveto
          6 -8 7 -7 7 -8 rrcurveto
          3 -12 -13 2 -14 hhcurveto
          -96 -83 -69 -129 -127 90 -80 118 97 71 63 89 10 hvcurveto
          -323 57 rmoveto
          94 57 46 73 75 78 -63 -88 -80 -57 -57 -81 -77 -68 53 95 vhcurveto
          endchar
        </CharString>
        <CharString name="aogonek">
          70 50 273 220 callgsubr
          28 vhcurveto
          -142 vlineto
          -63 -5 -43 -37 -60 vvcurveto
          112 callsubr
          40 -1 538 -69 -150 hlineto
          92 -28 134 callsubr
        </CharString>
        <CharString name="approxequal">
          -116 35 219 rmoveto
          71 callgsubr
          200 vmoveto
          71 callgsubr
          endchar
        </CharString>
        <CharString name="aring">
          -99 callsubr
          -304 437 56 callgsubr
        </CharString>
        <CharString name="asciicircum">
          1 497 171 rmoveto
          70 hlineto
          -233 519 rlineto
          -64 hlineto
          -234 -519 rlineto
          70 hlineto
          197 434 rlineto
          endchar
        </CharString>
        <CharString name="asciitilde">
          -116 35 255 rmoveto
          71 callgsubr
          endchar
        </CharString>
        <CharString name="asterisk">
          -141 272 732 rmoveto
          -73 hlineto
          16 -156 -126 93 -37 -65 146 -58 -147 -57 38 -66 127 95 -16 -158 rlineto
          73 hlineto
          -19 158 124 -92 36 64 -149 56 149 57 -36 64 -124 -91 rlineto
          endchar
        </CharString>
        <CharString name="at">
          503 736 307 rmoveto
          -157 -2 -97 -99 -116 hhcurveto
          -106 -63 84 112 2 hvcurveto
          145 3 87 102 121 hhcurveto
          118 56 -79 -108 -3 hvcurveto
          -450 -61 rmoveto
          -153 -5 89 -104 131 hhcurveto
          104 71 55 86 46 hvcurveto
          -108 -16 55 -33 71 hhcurveto
          126 105 146 198 265 -161 182 -303 -339 -212 -245 -303 -317 190 -161 304 -5 hvcurveto
          13 59 rlineto
          -268 4 -169 135 285 vvcurveto
          273 171 216 301 263 139 -159 -231 -177 -73 -103 -83 -42 -26 18 65 10 vhcurveto
          24 144 rlineto
          151 23 -79 128 -171 hhcurveto
          -159 -125 -131 -180 -5 hvcurveto
          endchar
        </CharString>
        <CharString name="atilde">
          -99 callsubr
          -348 333 -96 callgsubr
          endchar
        </CharString>
        <CharString name="b">
          70 146 396 rmoveto
          344 -70 -740 70 150 93 callgsubr
        </CharString>
        <CharString name="backslash">
          -28 143 940 rmoveto
          -70 hlineto
          325 -1107 rlineto
          69 hlineto
          endchar
        </CharString>
        <CharString name="bar">
          -395 69 791 rmoveto
          -892 70 892 vlineto
          endchar
        </CharString>
        <CharString name="braceleft">
          -255 101 373 rmoveto
          83 18 34 63 74 68 -24 43 91 vvcurveto
          118 69 76 54 30 vhcurveto
          7 -67 vlineto
          -32 -18 -90 -73 -145 -80 25 -57 -62 vvcurveto
          -45 -9 -65 -100 -26 vhcurveto
          -36 vlineto
          99 -25 10 -66 -45 -62 -25 -57 -80 vvcurveto
          -145 90 -73 32 -18 vhcurveto
          67 7 hlineto
          -54 30 -69 76 118 91 24 44 68 vvcurveto
          73 -35 64 -82 17 vhcurveto
          endchar
        </CharString>
        <CharString name="braceright">
          -253 255 371 rmoveto
          -82 -17 -35 -62 -70 -68 24 -44 -91 vvcurveto
          -115 -68 -84 -55 -30 vhcurveto
          -7 67 vlineto
          32 18 90 73 145 80 -25 57 62 vvcurveto
          45 11 68 98 23 vhcurveto
          36 vlineto
          -98 24 -11 67 45 62 25 57 80 vvcurveto
          145 -90 73 -32 18 vhcurveto
          -67 -7 hlineto
          55 -30 68 -84 -115 -91 -24 -43 -68 vvcurveto
          -71 35 -61 82 -18 vhcurveto
          endchar
        </CharString>
        <CharString name="bracketleft">
          -305 88 -166 rmoveto
          166 58 -99 990 99 58 -166 hlineto
          endchar
        </CharString>
        <CharString name="bracketright">
          -306 210 940 rmoveto
          -166 -58 99 -990 -99 -58 166 hlineto
          endchar
        </CharString>
        <CharString name="breve">
          -267 304 741 -73 callgsubr
          endchar
        </CharString>
        <CharString name="brokenbar">
          -352 90 271 rmoveto
          -372 71 372 vlineto
          150 vmoveto
          370 -71 -370 vlineto
          endchar
        </CharString>
        <CharString name="bullet">
          -277 163 219 rmoveto
          65 51 50 64 65 -51 52 -65 -64 -51 -52 -65 -64 51 -50 64 hvcurveto
          endchar
        </CharString>
        <CharString name="c">
          -41 callsubr
          endchar
        </CharString>
        <CharString name="cacute">
          -41 callsubr
          228 369 -62 callsubr
        </CharString>
        <CharString name="caron">
          -270 167 661 -56 callgsubr
        </CharString>
        <CharString name="ccaron">
          -41 callsubr
          263 388 -56 callgsubr
        </CharString>
        <CharString name="ccedilla">
          20 50 273 rmoveto
          -160 94 -102 135 -16 vhcurveto
          -107 49 vlineto
          45 callsubr
          67 vlineto
          136 3 91 81 20 117 rrcurveto
          -73 hlineto
          -87 -15 -72 -53 -97 hhcurveto
          -102 -93 68 151 151 93 68 102 97 72 -53 -87 15 hvcurveto
          73 hlineto
          120 -20 -95 81 -141 hhcurveto
          -155 -112 -104 -176 hvcurveto
          endchar
        </CharString>
        <CharString name="cdotaccent">
          -41 callsubr
          262 352 -44 callgsubr
        </CharString>
        <CharString name="cedilla">
          -330 113 7 rmoveto
          -47 -119 49 hlineto
          45 callsubr
          endchar
        </CharString>
        <CharString name="cent">
          -17 536 211 rmoveto
          -66 hlineto
          -86 -14 -69 -52 -87 hhcurveto
          -97 -85 61 132 131 85 62 97 87 68 -51 -87 15 hvcurveto
          66 hlineto
          -15 114 -86 76 -122 5 rrcurveto
          99 -38 -100 vlineto
          -133 -10 -92 -89 -150 vvcurveto
          -150 92 -90 133 -10 vhcurveto
          -107 38 106 vlineto
          122 5 86 77 15 114 rrcurveto
          endchar
        </CharString>
        <CharString name="circumflex">
          -270 301 664 -55 callgsubr
          endchar
        </CharString>
        <CharString name="colon">
          -435 39 hmoveto
          92 90 -92 hlineto
          348 vmoveto
          92 90 -92 hlineto
          endchar
        </CharString>
        <CharString name="comma">
          -444 34 56 155 callsubr
        </CharString>
        <CharString name="copyright">
          192 743 354 rmoveto
          -207 -140 -147 -205 -205 -140 147 207 207 140 146 205 205 140 -146 -207 vhcurveto
          -658 hmoveto
          -188 120 -136 193 192 120 136 188 187 -120 136 -192 -193 -120 -136 -187 vhcurveto
          99 hmoveto
          -152 99 -82 118 95 86 57 104 25 vhcurveto
          -62 hlineto
          -72 -22 -59 -38 -65 hhcurveto
          -82 -75 61 121 122 75 61 82 65 59 -38 -72 22 hvcurveto
          62 hlineto
          104 -25 -86 57 -95 hhcurveto
          -118 -99 -82 -151 hvcurveto
          endchar
        </CharString>
        <CharString name="currency">
          -76 152 377 rmoveto
          82 49 48 63 59 53 -48 -82 -83 -54 -47 -58 -63 -49 47 83 vhcurveto
          304 173 rmoveto
          -30 30 -60 -60 rlineto
          21 -29 -35 11 -38 hhcurveto
          -40 -35 -11 -21 -29 hvcurveto
          -60 60 -31 -30 61 -60 rlineto
          -23 -29 -13 -38 -45 vvcurveto
          -45 13 -38 21 -29 vhcurveto
          -59 -59 31 -30 58 59 rlineto
          -22 28 37 -12 41 hhcurveto
          39 36 12 22 28 hvcurveto
          59 -59 30 30 -59 58 rlineto
          23 29 14 39 45 vvcurveto
          46 -14 38 -24 29 vhcurveto
          endchar
        </CharString>
        <CharString name="d">
          70 50 273 220 callgsubr
          27 vhcurveto
          -150 70 740 -70 -344 41 callsubr
        </CharString>
        <CharString name="dagger">
          -102 278 540 rmoveto
          7 239 rlineto
          -69 hlineto
          6 -239 -187 6 rlineto
          -56 vlineto
          187 6 -6 -754 rlineto
          69 hlineto
          -7 754 188 -6 rlineto
          56 vlineto
          endchar
        </CharString>
        <CharString name="daggerdbl">
          -101 467 546 rmoveto
          -188 -6 6 239 rlineto
          -69 hlineto
          7 -239 -188 6 rlineto
          -56 vlineto
          188 6 rlineto
          -470 vlineto
          -188 7 rlineto
          -58 vlineto
          188 6 -7 -239 rlineto
          69 hlineto
          -6 239 188 -6 rlineto
          58 vlineto
          -188 -7 rlineto
          470 vlineto
          188 -6 rlineto
          endchar
        </CharString>
        <CharString name="danda">
          -337 304 callsubr
          endchar
        </CharString>
        <CharString name="dcaron">
          121 654 740 91 callgsubr
          -685 -467 220 callgsubr
          27 vhcurveto
          -150 70 740 -70 -344 41 callsubr
        </CharString>
        <CharString name="dcroat">
          71 50 273 220 callgsubr
          27 vhcurveto
          -150 70 636 67 37 -67 67 -70 -67 -168 -37 168 -240 41 callsubr
        </CharString>
        <CharString name="degree">
          -212 28 523 rmoveto
          -106 68 -70 101 100 66 70 106 106 -67 68 -100 -101 -67 -68 -106 vhcurveto
          278 -1 rmoveto
          -85 -45 -47 -64 -65 -46 47 85 86 45 47 65 65 45 -47 -86 vhcurveto
          endchar
        </CharString>
        <CharString name="dieresis">
          -259 94 625 -98 callsubr
          endchar
        </CharString>
        <CharString name="divide">
          -23 35 338 rmoveto
          300 callsubr
          209 -293 rmoveto
          92 90 -92 hlineto
          345 vmoveto
          92 90 -92 hlineto
          endchar
        </CharString>
        <CharString name="dollar">
          -35 270 -87 rmoveto
          27 80 5 hlineto
          151 63 95 91 145 -114 31 -105 32 hvcurveto
          269 vlineto
          81 -11 39 -57 9 -46 rrcurveto
          75 hlineto
          -13 83 -66 77 -125 10 rrcurveto
          88 -27 -87 -2 vlineto
          -134 -81 -75 -105 -141 113 -30 104 -31 hvcurveto
          -280 vlineto
          -92 12 -43 69 -6 52 rrcurveto
          -74 hlineto
          9 -99 82 -79 124 -12 rrcurveto
          -143 542 rmoveto
          79 56 43 85 vhcurveto
          2 -263 hlineto
          -77 25 -66 30 86 vvcurveto
          173 -487 rmoveto
          -3 273 hlineto
          78 -24 67 -32 -88 vvcurveto
          -71 -47 -58 -95 vhcurveto
          endchar
        </CharString>
        <CharString name="dotaccent">
          -439 82 625 -44 callgsubr
        </CharString>
        <CharString name="dotlessi">
          125 callgsubr
          endchar
        </CharString>
        <CharString name="dottedcircle">
          48 557 409 -37 callgsubr
          -376 -286 -37 callgsubr
          98 -76 -37 callgsubr
          -143 189 -37 callgsubr
          267 -203 -37 callgsubr
          -252 324 -37 callgsubr
          367 -278 -37 callgsubr
          -291 377 -37 callgsubr
          364 -281 -37 callgsubr
          -247 323 -37 callgsubr
          257 -203 -37 callgsubr
          -136 188 -37 callgsubr
          endchar
        </CharString>
        <CharString name="doubledanda">
          -143 304 callsubr
          131 hmoveto
          -742 64 742 vlineto
          endchar
        </CharString>
        <CharString name="dvA">
          222 248 441 rmoveto
          -52 37 vlineto
          -65 callgsubr
          204 callgsubr
          -204 -342 -237 vlineto
          -58 callsubr
          endchar
        </CharString>
        <CharString name="dvAA">
          501 248 441 rmoveto
          -52 37 vlineto
          -65 callgsubr
          64 292 callsubr
          -491 -342 -237 vlineto
          -58 callsubr
          endchar
        </CharString>
        <CharString name="dvAI">
          49 346 19 rmoveto
          142 84 85 144 hvcurveto
          55 callsubr
          119 54 -123 90 callgsubr
          -526 -54 136 hlineto
          253 callgsubr
          vhcurveto
          endchar
        </CharString>
        <CharString name="dvAU">
          508 713 hmoveto
          292 callsubr
          -144 vlineto
          281 -143 -42 12 -125 49 callgsubr
          -290 -342 -237 hlineto
          -58 callsubr
          -37 -52 37 hlineto
          -65 callgsubr
          vlineto
          endchar
        </CharString>
        <CharString name="dvAbbreviationsign">
          -105 251 512 rmoveto
          -97 -69 -66 -94 -93 69 -67 97 96 66 66 93 95 -66 66 -96 hvcurveto
          -42 vmoveto
          70 49 -49 -70 -69 -49 -48 -70 -72 -51 49 69 69 51 49 72 hvcurveto
          endchar
        </CharString>
        <CharString name="dvAcandra">
          223 248 441 rmoveto
          -52 37 vlineto
          -65 callgsubr
          204 callgsubr
          -204 -342 -237 vlineto
          -58 callsubr
          598 570 29 callsubr
        </CharString>
        <CharString name="dvAnusvara">
          -603 -97 887 5 callgsubr
        </CharString>
        <CharString name="dvAnusvara.amI">
          -603 167 887 5 callgsubr
        </CharString>
        <CharString name="dvAvagraha">
          -32 327 66 rmoveto
          98 44 54 63 hvcurveto
          157 -266 88 121 vvcurveto
          56 44 12 51 vhcurveto
          183 55 -197 hlineto
          -79 -67 -29 -86 hvcurveto
          -161 267 -88 -118 vvcurveto
          -38 -30 -32 -61 vhcurveto
          -233 -54 hlineto
          endchar
        </CharString>
        <CharString name="dvB">
          -181 568 338 rmoveto
          112 -75 126 -171 -34 callsubr
          156 88 111 127 vhcurveto
          -245 192 -78 callgsubr
          247 156 rmoveto
          54 -599 -54 vlineto
          355 71 callsubr
          endchar
        </CharString>
        <CharString name="dvBA">
          86 578 99 callgsubr
          -747 -54 545 115 callgsubr
          -135 -106 -93 -146 98 callgsubr
          hvcurveto
          -215 vlineto
          -190 532 -18 callsubr
        </CharString>
        <CharString name="dvBH">
          -101 -7 callsubr
          196 54 -196 16 callgsubr
        </CharString>
        <CharString name="dvBHA">
          177 -7 callsubr
          174 -398 204 callsubr
          -205 -288 -174 16 callgsubr
        </CharString>
        <CharString name="dvBH_LA">
          805 -7 callsubr
          160 vlineto
          -6 -23 -3 -26 -27 vvcurveto
          133 callsubr
          154 10 11 1 1 12 vhcurveto
          57 vlineto
          -1 -10 -11 -1 -9 hhcurveto
          -113 -59 79 106 97 49 73 98 92 46 -10 callgsubr
          54 102 callgsubr
          94 46 -76 -94 -106 -59 -79 -113 -9 -10 1 1 -11 vhcurveto
          -57 vlineto
          -1 12 11 -1 10 hhcurveto
          154 79 105 138 120 -60 85 -97 18 hvcurveto
          141 261 54 -883 -54 559 -139 vlineto
          -96 -11 -43 -74 -15 -67 rrcurveto
          -3 251 callgsubr
          -35 -61 -34 hvcurveto
          -182 90 hlineto
          19 callsubr
        </CharString>
        <CharString name="dvBH_NA">
          692 -7 callsubr
          167 vlineto
          -10 -24 -6 -27 -30 vvcurveto
          -26 callsubr
          108 82 70 111 6 callsubr
          vhcurveto
          218 -453 204 callsubr
          -743 -54 538 -180 -335 hlineto
          -61 -52 -19 -35 -36 hvcurveto
          -205 90 hlineto
          -80 callgsubr
          209 4 -104 callsubr
          endchar
        </CharString>
        <CharString name="dvBH_R">
          -101 139 callsubr
          172 148 rmoveto
          68 197 53 -197 88 vlineto
          83 callsubr
          -97 -103 vlineto
          -107 -78 -59 -103 221 callsubr
          hvcurveto
          -86 -403 rmoveto
          283 284 rlineto
          63 vlineto
          -356 -347 rlineto
          endchar
        </CharString>
        <CharString name="dvBH_RA">
          177 139 callsubr
          172 148 rmoveto
          68 198 -122 vlineto
          -357 -349 rlineto
          73 hlineto
          286 287 rlineto
          -217 59 0 callsubr
          -202 -286 -198 88 vlineto
          83 callsubr
          -97 -103 vlineto
          -107 -78 -59 -103 221 callsubr
          hvcurveto
          endchar
        </CharString>
        <CharString name="dvBH_R_YA">
          627 139 callsubr
          588 -11 8 callgsubr
          -416 159 rmoveto
          68 141 vlineto
          -57 10 -50 20 -41 vhcurveto
          -330 -323 rlineto
          73 hlineto
          282 281 rlineto
          -58 45 70 -34 92 hhcurveto
          114 74 54 64 34 hvcurveto
          145 callgsubr
          -171 90 hlineto
          83 callsubr
          -99 -103 vlineto
          -107 -78 -59 -101 221 callsubr
          hvcurveto
          endchar
        </CharString>
        <CharString name="dvBH_VA">
          578 -7 callsubr
          155 236 callsubr
          135 100 66 49 66 31 vhcurveto
          -219 301 callgsubr
          -648 -54 445 -230 vlineto
          65 -31 -65 49 -101 hhcurveto
          -92 -76 -44 -74 -38 hvcurveto
          -174 90 hlineto
          -80 callgsubr
          394 -156 128 callsubr
        </CharString>
        <CharString name="dvBH_YA">
          627 -7 callsubr
          140 vlineto
          -168 94 -111 168 114 74 54 64 34 vhcurveto
          145 callgsubr
          -170 90 hlineto
          -80 callgsubr
          415 -139 8 callgsubr
          endchar
        </CharString>
        <CharString name="dvB_BA">
          528 323 530 -78 callgsubr
          697 -530 157 callsubr
          -1189 -54 987 115 callgsubr
          -96 -81 -47 -80 -38 hvcurveto
          71 -35 -71 56 -114 hhcurveto
          -34 callsubr
          107 75 53 74 36 hvcurveto
          -80 39 82 -47 96 hhcurveto
          101 67 51 64 31 hvcurveto
          -215 vlineto
          -632 146 -87 callgsubr
          444 2 27 callgsubr
        </CharString>
        <CharString name="dvB_BHA">
          607 687 166 rmoveto
          -66 -49 138 callgsubr
          -47 84 -117 -21 -17 -3 -6 -15 vhcurveto
          -671 -54 668 2 hlineto
          19 -2 rlineto
          4 12 13 3 14 hhcurveto
          72 30 -55 -87 hvcurveto
          -99 -102 vlineto
          -57 -48 -18 -33 -33 hvcurveto
          92 -23 -75 83 -139 hhcurveto
          -34 callsubr
          96 69 42 61 40 hvcurveto
          -57 26 57 -35 76 hhcurveto
          108 63 70 132 hvcurveto
          -536 217 rmoveto
          131 63 -100 -93 -7 0 -8 -1 -7 hvcurveto
          -1 -3 0 -4 -1 -3 -4 -30 -12 -29 143 callgsubr
          endchar
        </CharString>
        <CharString name="dvB_BH_RA">
          629 323 530 rmoveto
          131 63 -100 -93 -5 0 -5 -1 -5 hvcurveto
          -5 -1 -5 -6 vvcurveto
          -5 -30 -12 -30 143 callgsubr
          363 39 rmoveto
          -67 -48 43 64 67 52 42 73 hvcurveto
          103 -72 hlineto
          -90 -41 -54 -72 vhcurveto
          -30 501 rmoveto
          5 12 13 2 15 hhcurveto
          72 31 -55 -87 hvcurveto
          -97 -103 vlineto
          -58 -49 -17 -33 -34 hvcurveto
          90 -24 -74 82 -138 hhcurveto
          -34 callsubr
          100 72 46 66 38 hvcurveto
          -50 28 56 -30 72 hhcurveto
          105 66 74 127 hvcurveto
          68 198 -122 vlineto
          -357 -349 rlineto
          73 hlineto
          287 288 rlineto
          -218 58 0 callsubr
          -202 -286 -198 88 vlineto
          123 -48 84 -116 -21 -19 -3 -6 -15 vhcurveto
          -671 -54 hlineto
          endchar
        </CharString>
        <CharString name="dvB_DA">
          448 1080 298 callsubr
          -1110 -54 894 -117 -82 hlineto
          -105 -92 -40 -82 -43 hvcurveto
          72 -34 -72 57 -115 hhcurveto
          -34 callsubr
          105 75 51 71 37 hvcurveto
          -72 35 72 -42 91 hhcurveto
          77 64 35 52 27 hvcurveto
          4 callgsubr
          hlineto
          -603 -540 -18 callgsubr
        </CharString>
        <CharString name="dvB_DHA">
          521 185 callgsubr
          831 540 rmoveto
          184 callsubr
          -94 -86 -121 -89 -74 40 85 66 47 50 100 vhcurveto
          -90 callgsubr
          -21 -20 255 callgsubr
          -643 -54 567 260 callgsubr
          -53 -7 -55 -39 -12 -69 rrcurveto
          -1 hlineto
          -5 -30 -12 -30 -19 -26 -290 261 rcurveline
          32 35 49 18 52 hhcurveto
          27 22 -3 -7 22 hvcurveto
          45 vlineto
          8 -24 -26 3 -27 hhcurveto
          -137 -107 -94 -148 -149 115 -86 134 92 71 43 66 39 hvcurveto
          -70 30 77 -36 94 hhcurveto
          107 83 51 82 38 280 callgsubr
        </CharString>
        <CharString name="dvB_DH_VA">
          960 185 callgsubr
          1125 540 rmoveto
          140 54 -633 -54 430 -231 hlineto
          -49 callsubr
          -21 -20 255 callgsubr
          -643 -54 567 260 callgsubr
          -53 -7 -55 -39 -12 -69 rrcurveto
          -1 hlineto
          -5 -30 -12 -30 -19 -26 -290 261 rcurveline
          32 35 49 18 52 hhcurveto
          27 22 -3 -7 22 hvcurveto
          45 vlineto
          8 -24 -26 3 -27 hhcurveto
          -137 -107 -94 -148 -149 115 -86 134 92 71 43 66 39 hvcurveto
          -71 30 80 -35 101 hhcurveto
          126 77 54 96 34 hvcurveto
          278 callgsubr
          63 vlineto
          -246 -23 callgsubr
          endchar
        </CharString>
        <CharString name="dvB_JA">
          659 326 146 -87 callgsubr
          965 540 rmoveto
          54 -1320 -54 1116 -184 -273 -166 vlineto
          17 callgsubr
          112 210 -447 63 686 vlineto
          -827 -156 -78 callgsubr
          endchar
        </CharString>
        <CharString name="dvB_JHA">
          694 326 146 104 callsubr
          50 14 41 24 32 45 callgsubr
          -31 -31 -43 -20 -58 hhcurveto
          378 174 rmoveto
          -65 -57 24 68 78 75 16 62 hvcurveto
          190 180 213 -366 hlineto
          63 -320 203 callsubr
          -1355 -54 877 -132 -146 vlineto
          -89 -94 -34 -107 hvcurveto
          -46 vlineto
          -49 -12 -54 -29 -42 vhcurveto
          -288 260 rlineto
          32 35 48 17 52 hhcurveto
          31 27 -5 -9 25 hvcurveto
          47 vlineto
          8 -26 -28 4 -32 hhcurveto
          -34 callsubr
          141 78 96 121 15 hvcurveto
          32 -30 48 -13 50 -1 rrcurveto
          73 hlineto
          100 54 -46 -74 -58 -39 -51 -92 -105 -53 60 68 -11 hvcurveto
          -54 -248 58 165 hlineto
          -25 13 49 -69 119 hhcurveto
          119 55 68 83 62 -26 40 -37 24 hvcurveto
          211 322 callsubr
        </CharString>
        <CharString name="dvB_J_YA">
          1116 323 530 -45 callsubr
          1008 28 rmoveto
          -134 -79 91 148 hvcurveto
          2 0 3 3 vvcurveto
          125 4 81 52 125 -39 callgsubr
          -1777 -54 1293 -75 vlineto
          -111 -75 -32 -112 vhcurveto
          -263 -132 hlineto
          17 callgsubr
          79 182 vlineto
          -179 3 94 -116 166 123 callgsubr
          endchar
        </CharString>
        <CharString name="dvB_JxA">
          668 1291 -31 callgsubr
          -1320 -54 1116 -184 -273 -166 vlineto
          17 callgsubr
          112 210 -447 63 686 vlineto
          -409 226 callsubr
          -415 139 -18 callgsubr
        </CharString>
        <CharString name="dvB_LA">
          734 1030 79 rmoveto
          -61 callsubr
          -1395 -54 1072 131 callgsubr
          -15 -49 118 callgsubr
          -78 -60 -38 -64 -32 hvcurveto
          72 -34 -72 58 -116 hhcurveto
          -34 callsubr
          101 73 47 67 38 hvcurveto
          -81 31 69 -54 107 hhcurveto
          175 callgsubr
          hvcurveto
          -102 callsubr
          98 92 -91 callgsubr
          -704 67 -18 callgsubr
        </CharString>
        <CharString name="dvB_L_YA">
          1247 326 146 -87 callgsubr
          1139 28 289 callsubr
          127 hvcurveto
          3 0 4 4 vvcurveto
          324 callgsubr
          54 138 vvcurveto
          99 32 callsubr
          -1908 -54 1425 -90 vlineto
          -117 -63 -42 -96 -6 vhcurveto
          64 -21 -58 53 -88 hhcurveto
          -116 -50 -80 -73 -16 hvcurveto
          -2 251 callgsubr
          -38 -64 -32 hvcurveto
          72 -34 -72 58 -116 hhcurveto
          -34 callsubr
          101 73 47 67 38 hvcurveto
          -81 31 69 -54 107 hhcurveto
          175 callgsubr
          hvcurveto
          -102 callsubr
          98 92 -11 callsubr
          122 49 78 100 79 39 -54 -43 9 vhcurveto
          -3 0 -2 -3 vvcurveto
          -162 95 -105 -15 callsubr
          vlineto
          -1416 -156 -78 callgsubr
          endchar
        </CharString>
        <CharString name="dvB_NA">
          628 575 117 callsubr
          -1289 -54 1085 200 callsubr
          -73 -60 -27 -50 -36 hvcurveto
          80 -31 -73 67 -125 hhcurveto
          -34 callsubr
          105 74 50 72 38 hvcurveto
          -58 32 63 -34 78 216 callgsubr
          -793 -540 -18 callgsubr
        </CharString>
        <CharString name="dvB_R">
          -181 570 -31 callgsubr
          -599 -54 vlineto
          597 -348 rmoveto
          112 -75 126 -171 -34 callsubr
          17 17 1 3 15 vhcurveto
          -167 -156 rlineto
          67 hlineto
          217 210 rlineto
          51 44 27 66 70 vvcurveto
          -245 192 -45 callsubr
          endchar
        </CharString>
        <CharString name="dvB_RA">
          86 477 160 256 callgsubr
          -747 -54 545 115 callgsubr
          -135 -106 -93 -146 294 callgsubr
          hvcurveto
          -168 -156 rlineto
          70 hlineto
          72 584 -18 callsubr
        </CharString>
        <CharString name="dvB_SA">
          643 323 530 -45 callsubr
          530 442 229 callsubr
          -1304 -54 822 -98 vlineto
          -108 -63 -69 -115 vhcurveto
          -58 hlineto
          88 -26 -75 77 -134 hhcurveto
          -34 callsubr
          90 67 37 56 41 hvcurveto
          -119 5 62 -83 121 hhcurveto
          118 72 77 120 hvcurveto
          196 callsubr
        </CharString>
        <CharString name="dvB_SHA">
          622 916 194 154 callsubr
          -693 -54 705 hlineto
          5 15 261 callgsubr
          -102 hlineto
          98 -18 -76 95 -148 hhcurveto
          -34 callsubr
          90 68 37 56 41 hvcurveto
          -121 6 68 -80 126 hhcurveto
          119 74 77 125 hvcurveto
          -593 336 -45 callsubr
          787 -146 rmoveto
          686 141 257 callsubr
        </CharString>
        <CharString name="dvB_TA">
          523 1155 -31 callgsubr
          -1184 -54 980 238 callsubr
          -103 -85 -29 -63 -50 hvcurveto
          89 -25 -75 80 -136 hhcurveto
          -34 callsubr
          86 65 34 51 41 hvcurveto
          -121 25 95 -62 134 hhcurveto
          -75 callgsubr
          153 -444 63 686 hlineto
          -688 71 callsubr
          -3 384 rmoveto
          131 63 -100 -93 -10 -1 -11 -2 -10 hvcurveto
          -1 0 0 -1 vvcurveto
          -5 -29 -11 -30 -19 -25 -289 262 rcurveline
          31 35 47 17 51 hhcurveto
          endchar
        </CharString>
        <CharString name="dvB_VA">
          516 1148 740 rmoveto
          -1177 -54 974 41 callgsubr
          -92 -76 -45 -74 -37 hvcurveto
          70 -35 -72 55 -113 hhcurveto
          -34 callsubr
          106 75 52 73 37 hvcurveto
          -76 37 75 -45 93 hhcurveto
          73 callgsubr
          -386 -529 -102 callgsubr
          -439 373 -45 callsubr
          endchar
        </CharString>
        <CharString name="dvB_YA">
          562 1203 -31 callgsubr
          -1232 -54 748 -75 vlineto
          -123 -69 -40 -106 -3 vhcurveto
          73 -34 -72 58 -116 hhcurveto
          -34 callsubr
          115 78 60 82 33 hvcurveto
          -77 41 78 -46 108 85 callgsubr
          vlineto
          -736 71 callsubr
          463 28 70 callgsubr
        </CharString>
        <CharString name="dvC">
          -144 411 480 227 callsubr
          146 98 107 134 -3 vhcurveto
          -55 hlineto
          146 callgsubr
          231 206 rmoveto
          54 -638 -54 vlineto
          endchar
        </CharString>
        <CharString name="dvCA">
          127 759 -31 callgsubr
          -788 -54 583 229 callgsubr
          -361 -52 196 hlineto
          -65 -33 -38 -62 -78 vvcurveto
          -129 98 -74 117 88 72 45 68 36 vhcurveto
          -217 -59 callsubr
        </CharString>
        <CharString name="dvCH">
          212 844 686 56 callsubr
          80 callgsubr
        </CharString>
        <CharString name="dvCHA">
          212 844 686 56 callsubr
          173 callsubr
          -221 -602 -82 callgsubr
          endchar
        </CharString>
        <CharString name="dvCH_R">
          65 callsubr
          80 callgsubr
        </CharString>
        <CharString name="dvCH_RA">
          65 callsubr
          173 callsubr
          -221 -602 -82 callgsubr
          endchar
        </CharString>
        <CharString name="dvCH_R_YA">
          -20 callgsubr
          -135 115 -74 170 -9 vhcurveto
          -150 -156 rlineto
          84 callsubr
          -157 162 134 23 98 75 34 114 rlinecurve
          213 callsubr
        </CharString>
        <CharString name="dvCH_YA">
          -20 callgsubr
          -144 131 -75 189 179 133 81 138 42 vhcurveto
          213 callsubr
        </CharString>
        <CharString name="dvC_CA">
          533 368 158 rmoveto
          -88 -76 56 102 199 callsubr
          274 hlineto
          -58 -29 -36 -53 -8 -66 rrcurveto
          -93 -22 -53 -81 -107 hhcurveto
          797 528 rmoveto
          54 -1194 -54 989 229 callgsubr
          -767 -52 196 hlineto
          177 callsubr
          -132 97 -71 119 102 63 57 78 35 vhcurveto
          -87 28 82 -48 95 hhcurveto
          88 72 45 68 36 hvcurveto
          -217 -59 callsubr
        </CharString>
        <CharString name="dvC_CHA">
          678 863 84 -13 callsubr
          rrcurveto
          -109 28 121 -57 164 hhcurveto
          218 153 257 callgsubr
        </CharString>
        <CharString name="dvC_CH_VA">
          678 854 -265 rmoveto
          -85 -64 54 91 89 59 57 102 3 hvcurveto
          0 vlineto
          49 49 7 13 43 hvcurveto
          -167 vlineto
          -66 -47 -81 -106 vhcurveto
          9 349 -13 callsubr
          21 -82 73 -52 103 -21 rrcurveto
          -61 -29 -41 -60 -79 vvcurveto
          -113 81 -74 115 83 55 39 54 28 vhcurveto
          -155 57 448 vlineto
          105 51 65 95 129 vvcurveto
          173 callsubr
          endchar
        </CharString>
        <CharString name="dvC_MA">
          645 1072 452 64 callsubr
          -370 -520 -95 callgsubr
          575 520 rmoveto
          54 -1306 -54 844 -234 -103 vlineto
          -96 -73 -51 -90 -14 hvcurveto
          0 vlineto
          -84 -15 -55 -69 -98 hhcurveto
          -86 -71 57 101 26 callgsubr
          -131 94 -72 118 88 62 42 64 35 vhcurveto
          -61 26 58 -38 79 82 callgsubr
        </CharString>
        <CharString name="dvC_NA">
          647 588 117 callsubr
          -1302 -54 1098 200 callsubr
          -7 callgsubr
          hvcurveto
          -2 vlineto
          -82 -8 -59 -72 -98 hhcurveto
          -86 -75 55 100 26 callgsubr
          -130 99 -71 119 91 68 48 72 31 vhcurveto
          -60 32 64 -36 80 1 callsubr
        </CharString>
        <CharString name="dvC_R">
          -144 609 -31 callgsubr
          -638 -54 vlineto
          440 -206 227 callsubr
          13 13 1 2 12 vhcurveto
          -161 -153 rlineto
          72 hlineto
          204 199 57 44 33 69 -2 79 rlinecurve
          -55 hlineto
          146 callgsubr
          endchar
        </CharString>
        <CharString name="dvC_RA">
          127 759 -31 callgsubr
          -788 -54 583 -341 vlineto
          -69 -35 -62 -56 -32 vhcurveto
          -1 hlineto
          -2 -2 rlineto
          -14 -25 -30 -8 -32 hhcurveto
          -91 -78 56 102 26 callgsubr
          -128 98 -72 117 225 callsubr
          vhcurveto
          -163 -154 rlineto
          72 hlineto
          205 199 23 17 19 23 14 25 rlinecurve
          -218 -59 callsubr
        </CharString>
        <CharString name="dvC_YA">
          613 830 174 rmoveto
          -134 -78 -94 callsubr
          -117 vhcurveto
          414 512 rmoveto
          54 -1273 -54 790 -33 callsubr
          -7 0 -7 -6 vvcurveto
          -7 -162 -85 -60 -95 -1 rrcurveto
          -90 -74 56 102 26 callgsubr
          -132 96 -71 125 97 84 48 110 36 vhcurveto
          -90 39 82 -53 116 -34 callgsubr
        </CharString>
        <CharString name="dvCandrabindu">
          -603 47 28 callsubr
        </CharString>
        <CharString name="dvD">
          5 650 -290 -49 callgsubr
          54 976 10 callgsubr
          endchar
        </CharString>
        <CharString name="dvDA">
          6 637 686 10 callgsubr
          endchar
        </CharString>
        <CharString name="dvDA_mvR">
          -21 550 226 rmoveto
          -55 hlineto
          -111 -80 -54 -104 -94 -65 42 77 76 65 29 70 vhcurveto
          61 49 -59 hlineto
          -81 -57 36 60 71 63 23 71 hvcurveto
          180 162 148 54 -642 -54 434 -115 -142 hlineto
          -95 -81 -37 -98 -79 70 -41 56 -6 hvcurveto
          -2 vlineto
          -48 -5 -78 -35 -94 vvcurveto
          -107 92 -55 129 140 101 67 147 1 vhcurveto
          endchar
        </CharString>
        <CharString name="dvDD">
          -26 471 -291 -49 callgsubr
          202 977 -19 callgsubr
          endchar
        </CharString>
        <CharString name="dvDDA">
          -26 606 686 -19 callgsubr
          endchar
        </CharString>
        <CharString name="dvDDH">
          34 507 -266 -49 callgsubr
          226 952 rmoveto
          54 -695 -54 445 -75 callsubr
          89 170 hlineto
          endchar
        </CharString>
        <CharString name="dvDDHA">
          34 666 -31 callgsubr
          -695 -54 445 -75 callsubr
          89 170 hlineto
          endchar
        </CharString>
        <CharString name="dvDDH_DDHA">
          68 700 -31 callgsubr
          -729 -54 451 -109 -73 vlineto
          -148 -115 -76 -155 -108 62 -73 97 -33 hvcurveto
          -94 -30 -65 -70 -113 vvcurveto
          -149 119 -83 166 151 85 65 96 83 -57 60 -104 -91 -60 310 callgsubr
          vhcurveto
          46 hlineto
          -2 5 -1 8 6 vvcurveto
          51 42 32 62 71 39 -42 -56 -69 -70 -47 -112 -140 -87 71 116 131 105 62 124 vhcurveto
          0 1 vlineto
          143 89 65 96 83 -56 59 -105 -91 -60 310 callgsubr
          hvcurveto
          46 hlineto
          -2 6 -1 7 7 vvcurveto
          50 42 32 62 71 39 -41 -57 -68 -70 -47 -112 286 callgsubr
          114 152 hlineto
          endchar
        </CharString>
        <CharString name="dvDDH_R">
          34 512 -345 -49 callgsubr
          221 1031 14 callsubr
        </CharString>
        <CharString name="dvDDH_RA">
          34 666 686 14 callsubr
        </CharString>
        <CharString name="dvDDH_VA">
          34 666 -31 callgsubr
          -695 -54 444 -109 -66 vlineto
          -148 -115 -76 -155 -107 61 -75 92 -32 hvcurveto
          -71 -21 -52 -58 -89 vvcurveto
          -106 77 -69 106 77 52 39 52 27 vhcurveto
          -162 55 424 vlineto
          53 29 29 47 58 vvcurveto
          81 -55 58 -94 -89 -59 310 callgsubr
          vhcurveto
          46 hlineto
          -2 6 -1 7 7 vvcurveto
          50 41 32 60 60 37 -40 -55 -70 -63 -48 -103 286 callgsubr
          107 152 hlineto
          -159 -846 rmoveto
          -76 -60 48 82 95 67 47 128 31 28 3 6 25 hvcurveto
          -134 vlineto
          -68 -42 -79 -101 vhcurveto
          endchar
        </CharString>
        <CharString name="dvDDH_YA">
          652 1143 hmoveto
          0 callsubr
          -1313 -54 445 -75 callsubr
          325 hlineto
          60 81 -8 -84 -63 -57 -22 -88 3 hvcurveto
          -23 hlineto
          -1 -10 0 -11 -10 vvcurveto
          -144 74 -90 141 94 58 44 66 30 vhcurveto
          -187 vlineto
          -171 126 rmoveto
          -111 -55 70 105 hvcurveto
          3 0 3 3 vvcurveto
          100 -1 71 32 86 vvcurveto
          106 -89 28 -105 vhcurveto
          -245 125 605 -357 hlineto
          -119 -60 -84 -111 vhcurveto
          endchar
        </CharString>
        <CharString name="dvDDHxA">
          34 666 -31 callgsubr
          -695 -54 445 -75 callsubr
          89 170 hlineto
          -86 -806 rmoveto
          -101 callgsubr
          endchar
        </CharString>
        <CharString name="dvDD_DDA">
          -10 622 -31 callgsubr
          -651 -54 429 170 callsubr
          -67 47 -51 66 -22 vhcurveto
          -57 -14 -39 -33 -60 vvcurveto
          -93 86 -21 111 90 70 -14 -82 -58 -43 -36 -91 -120 -58 54 67 -1 vhcurveto
          -61 hlineto
          -106 2 100 -59 138 hhcurveto
          128 66 52 87 109 -86 29 -127 -78 -67 7 65 59 51 21 109 131 67 53 86 274 callgsubr
          hvcurveto
          323 callgsubr
        </CharString>
        <CharString name="dvDD_DDHA">
          2 604 -31 callgsubr
          -622 -54 415 170 callsubr
          -73 55 -53 74 -19 vhcurveto
          -93 -26 -65 -69 -115 vvcurveto
          -145 113 -79 156 139 79 66 95 83 -54 59 -99 -87 -57 -44 -76 -7 1 -12 2 -8 vhcurveto
          45 hlineto
          -1 6 -1 8 6 vvcurveto
          51 39 32 58 66 35 -42 -56 -69 -64 -47 -102 -132 -81 67 111 127 99 61 119 2 vhcurveto
          127 5 63 49 85 vvcurveto
          274 callgsubr
          vhcurveto
          323 callgsubr
        </CharString>
        <CharString name="dvDD_R">
          -26 462 -370 -49 callgsubr
          211 1056 23 callsubr
        </CharString>
        <CharString name="dvDD_RA">
          -26 606 686 23 callsubr
        </CharString>
        <CharString name="dvDD_VA">
          2 286 -166 rmoveto
          -76 -59 46 82 90 66 45 112 37 32 4 9 27 hvcurveto
          -148 vlineto
          -57 -43 -71 -96 vhcurveto
          348 852 rmoveto
          54 -663 -54 426 -111 -121 vlineto
          -90 -81 -30 -93 -103 98 -16 94 90 75 -14 -83 -59 -43 -35 -91 -120 -57 54 66 -2 hvcurveto
          -61 hlineto
          -71 52 -55 74 -22 vhcurveto
          -68 -20 -51 -55 -83 vvcurveto
          -104 77 -65 102 69 53 26 49 29 vhcurveto
          -144 55 421 vlineto
          28 24 14 33 40 vvcurveto
          108 -87 30 -117 2 vhcurveto
          -82 1 -69 4 68 vvcurveto
          69 66 12 55 vhcurveto
          323 callgsubr
        </CharString>
        <CharString name="dvDD_YA">
          562 1054 99 callgsubr
          -1223 -54 426 -133 -125 92 callsubr
          325 hlineto
          63 84 -8 -83 -63 -56 -18 -87 hvcurveto
          -25 hlineto
          -11 -1 -10 -11 vvcurveto
          -138 74 -87 141 94 58 47 70 30 vhcurveto
          -194 vlineto
          -171 126 rmoveto
          -111 -55 67 99 hvcurveto
          3 0 3 4 vvcurveto
          104 1 67 35 81 vvcurveto
          104 -92 29 -109 vhcurveto
          -165 134 532 -342 hlineto
          -127 -60 -91 -111 vhcurveto
          endchar
        </CharString>
        <CharString name="dvDDxA">
          -26 606 686 -19 callgsubr
          -101 -832 rmoveto
          -101 callgsubr
          endchar
        </CharString>
        <CharString name="dvDH">
          -175 591 332 rmoveto
          -56 hlineto
          -103 -83 -72 -129 -87 148 callgsubr
          vhcurveto
          11 callgsubr
          168 105 94 135 vhcurveto
          endchar
        </CharString>
        <CharString name="dvDHA">
          104 738 686 rmoveto
          184 callsubr
          -94 -86 -121 -89 -74 40 85 66 47 50 100 vhcurveto
          -90 callgsubr
          -100 -66 -68 -94 124 callgsubr
          -114 94 -59 120 107 83 51 82 38 vhcurveto
          109 callgsubr
        </CharString>
        <CharString name="dvDH_MA">
          649 1281 -31 callgsubr
          -742 -54 279 -234 -102 vlineto
          -101 -76 -57 -98 -7 hvcurveto
          -2 -7 rlineto
          -75 -12 -71 -58 -124 hhcurveto
          -87 2 callsubr
          95 -57 126 116 78 39 61 39 vhcurveto
          -57 27 56 -35 76 hhcurveto
          223 callsubr
          hvcurveto
          85 198 -398 64 686 vlineto
          -435 -520 rmoveto
          -66 198 callgsubr
          -71 vhcurveto
          371 286 287 callsubr
          endchar
        </CharString>
        <CharString name="dvDH_NA">
          639 1284 -31 callgsubr
          -745 -54 541 200 callsubr
          -114 -85 -68 -114 -4 hvcurveto
          -1 vlineto
          -110 -14 -80 -56 -120 -1 callgsubr
          98 -57 126 119 85 49 87 35 vhcurveto
          -68 29 68 -41 85 hhcurveto
          109 81 70 111 65 -28 306 callgsubr
          hlineto
          -545 214 callgsubr
        </CharString>
        <CharString name="dvDH_N_YA">
          1114 1746 -31 callgsubr
          -1205 -54 722 -75 vlineto
          -113 -75 -31 -113 vhcurveto
          -334 hlineto
          -112 -83 -65 -108 -7 hvcurveto
          -90 -21 -71 -47 -120 -1 callgsubr
          98 -57 126 115 78 39 72 38 vhcurveto
          -76 25 72 -47 91 hhcurveto
          108 81 70 111 63 -28 49 -37 29 hvcurveto
          197 hlineto
          -179 4 94 -115 165 85 callgsubr
          vlineto
          -1008 -408 rmoveto
          80 57 55 82 80 57 -56 -78 -78 -57 -56 -80 -83 -56 55 78 vhcurveto
          735 -104 rmoveto
          -135 -79 95 148 hvcurveto
          126 4 82 53 128 vvcurveto
          84 -54 callsubr
          -94 -78 -116 vhcurveto
          endchar
        </CharString>
        <CharString name="dvDH_R">
          -175 591 332 rmoveto
          -56 hlineto
          -103 -83 -72 -129 -87 148 callgsubr
          vhcurveto
          11 callgsubr
          27 25 2 5 24 vhcurveto
          -184 -172 rlineto
          72 hlineto
          229 224 rlineto
          51 40 29 60 70 vvcurveto
          endchar
        </CharString>
        <CharString name="dvDH_RA">
          104 489 171 rmoveto
          -1 hlineto
          19 19 16 22 12 24 rrcurveto
          -236 64 686 139 184 callsubr
          -94 -86 -121 -89 -74 40 85 66 47 50 100 vhcurveto
          -90 callgsubr
          -100 -66 -68 -94 124 callgsubr
          -113 94 -58 120 18 16 1 3 17 vhcurveto
          -183 -171 rlineto
          72 hlineto
          endchar
        </CharString>
        <CharString name="dvDH_VA">
          498 1032 -5 callgsubr
          140 54 -633 -54 430 -231 hlineto
          -49 callsubr
          -100 -66 -68 -94 -98 63 -51 66 -14 vhcurveto
          -3 vlineto
          -60 -8 -63 -50 -87 183 callsubr
          63 vlineto
          -246 -23 callgsubr
          endchar
        </CharString>
        <CharString name="dvDH_YA">
          585 1217 -31 callgsubr
          -678 -54 194 -75 vlineto
          -5 callsubr
          -14 -1 -16 -14 vvcurveto
          -4 vlineto
          0 vlineto
          -141 3 -75 -99 -133 hhcurveto
          -87 2 callsubr
          98 -57 127 118 82 62 98 35 vhcurveto
          -90 39 81 -54 118 123 callgsubr
          -273 -512 rmoveto
          -134 -79 -94 callsubr
          -116 vhcurveto
          endchar
        </CharString>
        <CharString name="dvD_BA">
          140 callgsubr
          75 59 36 63 28 vhcurveto
          122 callgsubr
          rlineto
          -37 -23 -41 -29 -60 162 callgsubr
        </CharString>
        <CharString name="dvD_BHA">
          747 650 -290 -49 callgsubr
          54 976 10 callgsubr
          342 -520 -50 callgsubr
          174 -398 204 callsubr
          -205 -288 -174 16 callgsubr
        </CharString>
        <CharString name="dvD_B_RA">
          140 callgsubr
          vhcurveto
          4 3 0 4 hhcurveto
          -133 -124 rlineto
          68 hlineto
          169 162 20 15 16 21 11 25 rlinecurve
          122 callgsubr
          -14 -22 -20 -19 -26 -12 rlinecurve
          -2 hlineto
          -2 -2 rlineto
          -7 -17 -20 -4 -23 162 callgsubr
        </CharString>
        <CharString name="dvD_DA">
          -63 482 -47 rmoveto
          276 -54 vlineto
          -103 -64 -57 -100 -87 -57 41 77 62 43 44 87 vhcurveto
          93 48 -92 hlineto
          -91 -45 45 54 77 73 25 86 hvcurveto
          141 144 154 54 -610 -54 393 -99 hlineto
          1 -31 -32 0 -31 hhcurveto
          -113 -93 -35 -108 -74 53 -43 67 -11 hvcurveto
          -2 vlineto
          -66 -10 -51 -48 -77 vvcurveto
          -101 78 -60 110 98 56 46 48 23 vhcurveto
          -160 vlineto
          endchar
        </CharString>
        <CharString name="dvD_DHA">
          294 926 -31 callgsubr
          -955 -54 737 237 callsubr
          -94 41 -69 66 -36 hvcurveto
          -98 -21 -71 -57 -86 hhcurveto
          250 callgsubr
          63 45 56 108 -7 hvcurveto
          53 vlineto
          -150 11 -66 -77 -89 vvcurveto
          -94 64 -44 64 -14 vhcurveto
          82 callsubr
        </CharString>
        <CharString name="dvD_GA">
          183 callgsubr
          -134 vlineto
          -51 -18 -56 -73 -68 -22 54 303 callsubr
          -84 47 -68 99 107 42 73 87 vhcurveto
          128 vlineto
          69 3 56 33 27 45 rrcurveto
          -444 59 547 97 callgsubr
          endchar
        </CharString>
        <CharString name="dvD_GHA">
          294 289 -20 rmoveto
          250 callgsubr
          59 41 54 92 41 43 -11 -26 44 hvcurveto
          -25 -35 -15 -46 -55 vvcurveto
          -94 41 -69 66 -36 vhcurveto
          -98 -21 -71 -57 -86 hhcurveto
          637 706 rmoveto
          54 -955 -54 737 -117 -82 vlineto
          -75 -68 -20 -42 -49 hvcurveto
          34 -50 -60 20 -60 hhcurveto
          -130 -58 -74 -83 -94 64 -44 64 -14 hvcurveto
          82 callsubr
        </CharString>
        <CharString name="dvD_G_RA">
          183 callgsubr
          -68 vlineto
          -52 -18 -55 -73 -68 -22 53 303 callsubr
          -83 47 -69 99 107 42 74 87 vhcurveto
          62 vlineto
          69 3 56 33 27 45 rrcurveto
          -195 vlineto
          -302 -302 rlineto
          66 hlineto
          239 245 rlineto
          -192 56 547 97 callgsubr
          endchar
        </CharString>
        <CharString name="dvD_MA">
          201 183 -6 rmoveto
          65 47 36 64 vhcurveto
          88 -71 hlineto
          -80 -37 -46 -62 -58 -42 39 57 vhcurveto
          258 155 rmoveto
          161 -171 vlineto
          -75 -56 33 66 76 55 28 74 hvcurveto
          159 173 201 -537 hlineto
          205 537 rmoveto
          54 -862 -54 394 -117 -103 vlineto
          -105 -81 -43 -116 -100 80 -53 108 hvcurveto
          118 -108 -84 hlineto
          -98 -74 -51 -102 -92 62 -59 96 99 58 64 121 hvcurveto
          65 187 -313 63 904 vlineto
          endchar
        </CharString>
        <CharString name="dvD_NA">
          767 650 -290 -49 callgsubr
          131 607 40 callgsubr
          -1428 -54 451 -117 -82 vlineto
          -36 callsubr
          709 232 callsubr
          hlineto
          -117 -86 -71 -118 -113 83 -74 114 95 callsubr
        </CharString>
        <CharString name="dvD_R">
          5 649 -290 -49 callgsubr
          55 976 rmoveto
          54 -666 273 callgsubr
          187 callsubr
          hvcurveto
          -42 callsubr
        </CharString>
        <CharString name="dvD_RA">
          5 637 -31 callgsubr
          -666 273 callgsubr
          187 callsubr
          hvcurveto
          -42 callsubr
        </CharString>
        <CharString name="dvD_VA">
          -2 630 -31 callgsubr
          -659 -54 442 -117 -90 vlineto
          -144 -98 -63 -129 -86 47 -61 72 -24 hvcurveto
          -54 -25 -41 -55 -75 vvcurveto
          -107 76 -71 107 70 55 31 54 29 vhcurveto
          -152 59 562 97 callgsubr
          -174 -764 193 callsubr
          endchar
        </CharString>
        <CharString name="dvD_YA">
          95 288 94 rmoveto
          -96 -69 40 75 77 62 28 82 hvcurveto
          68 50 -66 hlineto
          -80 -66 28 70 77 76 20 69 hvcurveto
          25 -1 hlineto
          1 1 rlineto
          60 127 169 -354 hlineto
          -168 -99 -70 -136 vhcurveto
          439 592 rmoveto
          54 -734 -54 300 -98 vlineto
          1 -19 -19 0 -20 hhcurveto
          -83 -93 -28 -100 -88 77 -28 47 -6 hvcurveto
          -3 vlineto
          -46 -4 -78 -30 -98 vvcurveto
          -104 92 -56 124 124 86 46 96 38 vhcurveto
          -186 205 callgsubr
        </CharString>
        <CharString name="dvE">
          49 681 -31 callgsubr
          -710 -54 136 vlineto
          253 callgsubr
          142 84 85 144 vhcurveto
          55 callsubr
          vlineto
          endchar
        </CharString>
        <CharString name="dvEcandra">
          49 681 -31 callgsubr
          -710 -54 136 vlineto
          253 callgsubr
          142 84 85 144 vhcurveto
          55 callsubr
          vlineto
          -39 324 29 callsubr
        </CharString>
        <CharString name="dvEight">
          28 callgsubr
        </CharString>
        <CharString name="dvEyelash">
          -325 345 438 rmoveto
          -5 -18 -21 -5 -35 hhcurveto
          -85 -94 34 108 -1 hvcurveto
          -60 hlineto
          -143 1 121 -48 109 hhcurveto
          42 41 8 12 21 hvcurveto
          -20 287 rmoveto
          54 -375 -54 vlineto
          endchar
        </CharString>
        <CharString name="dvEyelash_HA">
          147 689 58 -86 callsubr
          -808 -54 602 147 callsubr
          -35 12 -27 18 -21 hvcurveto
          -4 -14 -16 -2 -20 hhcurveto
          -73 -80 35 102 hvcurveto
          -60 hlineto
          -135 1 106 -54 95 hhcurveto
          52 32 12 11 23 hvcurveto
          4 -2 5 -2 4 -2 rrcurveto
          101 callsubr
        </CharString>
        <CharString name="dvEyelash_YA">
          309 527 174 rmoveto
          -134 -78 -94 callsubr
          -117 vhcurveto
          414 512 rmoveto
          54 -970 -54 487 -75 vlineto
          60 callgsubr
          0 vlineto
          -82 1 -95 35 105 vvcurveto
          -60 hlineto
          2 -135 109 -51 107 -5 rrcurveto
          -168 2 95 -108 166 -34 callgsubr
        </CharString>
        <CharString name="dvFive">
          70 callsubr
        </CharString>
        <CharString name="dvFour">
          144 callsubr
        </CharString>
        <CharString name="dvG">
          -141 491 -31 callgsubr
          -520 -93 callsubr
          vlineto
          endchar
        </CharString>
        <CharString name="dvGA">
          124 615 hmoveto
          0 callsubr
          -785 -93 callsubr
          192 -686 vlineto
          endchar
        </CharString>
        <CharString name="dvGH">
          -171 593 -31 callgsubr
          -622 31 callsubr
          95 -62 144 160 107 109 144 vhcurveto
          172 callgsubr
        </CharString>
        <CharString name="dvGHA">
          111 326 113 callgsubr
          46 85 hvcurveto
          81 166 callgsubr
          -772 31 callsubr
          95 -62 131 103 82 48 78 40 vhcurveto
          -235 -59 callsubr
        </CharString>
        <CharString name="dvGH_MA">
          621 1048 452 64 callsubr
          -370 -520 -95 callgsubr
          -369 -4 rmoveto
          -85 -72 43 92 68 47 56 115 hvcurveto
          61 53 -57 265 callsubr
          622 -234 -103 vlineto
          -93 -73 -49 -86 -16 hvcurveto
          -4 -13 rlineto
          -104 -28 -66 -38 -99 hhcurveto
          944 524 rmoveto
          54 -1282 31 callsubr
          89 -62 123 100 74 33 79 39 vhcurveto
          -67 23 61 -43 83 82 callgsubr
        </CharString>
        <CharString name="dvGH_NA">
          617 564 317 -104 callsubr
          -255 -155 rmoveto
          -85 -72 43 92 68 47 56 115 hvcurveto
          46 53 -42 265 callsubr
          876 200 callsubr
          -104 -80 -57 -96 -16 hvcurveto
          -5 -17 rlineto
          -129 -31 -57 -45 -107 hhcurveto
          940 524 rmoveto
          54 -1278 31 callsubr
          88 -62 123 104 79 37 101 37 vhcurveto
          -73 27 70 -44 88 1 callsubr
        </CharString>
        <CharString name="dvGH_R">
          -171 593 -31 callgsubr
          -622 31 callsubr
          95 -62 144 20 18 2 3 18 vhcurveto
          -179 -169 rlineto
          71 hlineto
          226 220 rlineto
          59 45 34 71 81 vvcurveto
          172 callgsubr
        </CharString>
        <CharString name="dvGH_RA">
          111 326 113 callgsubr
          48 84 hvcurveto
          80 166 callgsubr
          -772 46 callsubr
          -120 95 -61 131 17 17 1 3 16 vhcurveto
          -181 -170 rlineto
          71 hlineto
          242 233 rlineto
          0 vlineto
          17 17 15 19 11 22 rrcurveto
          109 callgsubr
        </CharString>
        <CharString name="dvGH_YA">
          592 326 113 callgsubr
          46 85 hvcurveto
          81 572 -33 callsubr
          vvcurveto
          -17 1 -16 2 -16 vhcurveto
          -112 -5 -89 -78 -118 hhcurveto
          484 12 rmoveto
          -134 -78 -94 callsubr
          -117 vhcurveto
          414 512 rmoveto
          54 -1253 31 callsubr
          95 -62 144 114 87 55 84 41 vhcurveto
          -81 41 79 -48 110 -34 callgsubr
        </CharString>
        <CharString name="dvG_BA">
          516 1007 99 callgsubr
          -1176 -93 callsubr
          585 115 callgsubr
          -135 -106 -93 -146 98 callgsubr
          hvcurveto
          -215 vlineto
          -188 148 27 callgsubr
        </CharString>
        <CharString name="dvG_BHA">
          599 679 166 rmoveto
          -67 -48 138 callgsubr
          -48 84 -116 -22 -19 -3 -6 -17 vhcurveto
          -658 268 callgsubr
          hlineto
          -99 callgsubr
          289 vlineto
          4 12 14 3 13 hhcurveto
          72 31 -55 -87 hvcurveto
          -99 -102 vlineto
          -107 -78 -63 -108 -101 70 -69 105 223 callsubr
          hvcurveto
          endchar
        </CharString>
        <CharString name="dvG_BH_YA">
          1048 679 166 52 callsubr
          -657 268 callgsubr
          hlineto
          -99 callgsubr
          194 vlineto
          177 callgsubr
          -102 vlineto
          -107 -78 -83 callsubr
          415 -139 8 callgsubr
          endchar
        </CharString>
        <CharString name="dvG_DA">
          435 1066 298 callsubr
          -1096 268 callgsubr
          hlineto
          -99 callgsubr
          491 -117 -82 vlineto
          36 callsubr
          endchar
        </CharString>
        <CharString name="dvG_DHA">
          528 1022 hmoveto
          686 139 184 callsubr
          -94 -86 -121 -89 -74 40 85 66 47 50 100 vhcurveto
          -90 callgsubr
          -21 -20 255 callgsubr
          -646 268 callgsubr
          hlineto
          -99 callgsubr
          181 vlineto
          -20 -27 -11 -34 -38 vvcurveto
          124 callgsubr
          -114 94 -59 120 107 83 51 82 38 vhcurveto
          -236 vlineto
          endchar
        </CharString>
        <CharString name="dvG_DH_VA">
          963 1455 99 callgsubr
          -633 -54 430 -231 vlineto
          -49 callsubr
          -21 -20 255 callgsubr
          -646 268 callgsubr
          hlineto
          -99 callgsubr
          181 vlineto
          -20 -27 -11 -34 -38 vvcurveto
          -98 63 -51 66 -14 vhcurveto
          -3 vlineto
          -60 -8 -63 -50 -87 183 callsubr
          vlineto
          -183 -23 callgsubr
          endchar
        </CharString>
        <CharString name="dvG_DH_YA">
          1007 1226 174 -2 callgsubr
          -646 268 callgsubr
          hlineto
          -99 callgsubr
          181 vlineto
          -20 -27 -11 -34 -38 vvcurveto
          -98 63 -51 66 -14 vhcurveto
          -3 vlineto
          -60 -8 -63 -50 -87 176 callsubr
          vlineto
          endchar
        </CharString>
        <CharString name="dvG_GA">
          560 1051 hmoveto
          0 callsubr
          -1221 -93 callsubr
          372 -89 callgsubr
          192 -686 vlineto
          endchar
        </CharString>
        <CharString name="dvG_GHA">
          529 745 113 callgsubr
          46 85 hvcurveto
          81 166 callgsubr
          -1191 -93 callsubr
          164 50 callgsubr
          -121 95 -62 131 103 82 48 78 40 vhcurveto
          -235 -59 callsubr
        </CharString>
        <CharString name="dvG_JA">
          655 1286 -31 callgsubr
          -1315 -93 callsubr
          722 -184 -272 -166 vlineto
          -91 callsubr
          210 223 callgsubr
          endchar
        </CharString>
        <CharString name="dvG_LA">
          728 1023 79 rmoveto
          -61 callsubr
          -1388 -93 callsubr
          676 -139 vlineto
          -97 -11 -43 -74 -15 -67 rrcurveto
          -2 hlineto
          72 -16 -48 81 -108 hhcurveto
          -124 -80 -88 -138 -138 79 -105 154 -79 callsubr
          endchar
        </CharString>
        <CharString name="dvG_MA">
          612 1039 452 64 callsubr
          -370 -520 -95 callgsubr
          575 520 rmoveto
          54 -1273 -93 callsubr
          422 171 callsubr
        </CharString>
        <CharString name="dvG_NA">
          615 562 117 callsubr
          -1276 -93 callsubr
          683 200 callsubr
          -117 -86 -71 -118 -113 83 -74 114 95 callsubr
        </CharString>
        <CharString name="dvG_NNA">
          678 712 248 rmoveto
          -56 callsubr
          598 315 callsubr
          -1339 -93 callsubr
          170 184 callgsubr
        </CharString>
        <CharString name="dvG_N_YA">
          1079 561 278 rmoveto
          -25 callsubr
          -1740 -93 callsubr
          867 222 callgsubr
          -334 -22 callgsubr
          63 -28 49 -38 29 hvcurveto
          198 hlineto
          -179 4 93 -115 165 -34 callgsubr
        </CharString>
        <CharString name="dvG_R">
          -141 564 347 rmoveto
          -373 -367 rlineto
          75 hlineto
          298 299 rlineto
          407 vmoveto
          54 -593 -10 callsubr
          vlineto
          endchar
        </CharString>
        <CharString name="dvG_RA">
          124 615 hmoveto
          0 callsubr
          -785 -10 callsubr
          192 -351 vlineto
          -361 -355 rlineto
          75 hlineto
          287 289 rlineto
          -269 vlineto
          endchar
        </CharString>
        <CharString name="dvG_R_YA">
          561 778 174 rmoveto
          -134 -78 -94 callsubr
          -117 vhcurveto
          414 512 rmoveto
          54 -1221 -10 callsubr
          349 -33 callsubr
          vvcurveto
          -37 4 -34 9 -31 vhcurveto
          -325 -319 rlineto
          75 hlineto
          269 270 rlineto
          -83 41 79 -48 111 -34 callgsubr
        </CharString>
        <CharString name="dvG_SA">
          632 847 588 67 callgsubr
          -1294 -93 callsubr
          424 -98 vlineto
          -20 callsubr
          490 -363 64 686 vlineto
          endchar
        </CharString>
        <CharString name="dvG_VA">
          503 748 157 -73 callsubr
          -1163 268 callgsubr
          hlineto
          -99 callgsubr
          571 152 callgsubr
        </CharString>
        <CharString name="dvG_YA">
          561 778 174 rmoveto
          -134 -78 -94 callsubr
          -117 vhcurveto
          414 512 rmoveto
          54 -1221 -93 callsubr
          349 18 callsubr
          endchar
        </CharString>
        <CharString name="dvGx">
          -141 491 -31 callgsubr
          -520 -93 callsubr
          vlineto
          -102 -586 rmoveto
          -101 callgsubr
          endchar
        </CharString>
        <CharString name="dvGxA">
          124 615 hmoveto
          0 callsubr
          -785 -93 callsubr
          192 -686 vlineto
          -294 100 rmoveto
          -101 callgsubr
          endchar
        </CharString>
        <CharString name="dvGx_R">
          -141 564 347 rmoveto
          -373 -367 rlineto
          75 hlineto
          298 299 rlineto
          407 vmoveto
          54 -593 -10 callsubr
          vlineto
          -221 -572 -16 callsubr
          endchar
        </CharString>
        <CharString name="dvGx_RA">
          124 615 hmoveto
          0 callsubr
          -785 -10 callsubr
          192 -351 vlineto
          -361 -355 rlineto
          75 hlineto
          287 289 rlineto
          -269 vlineto
          -414 114 -16 callsubr
          endchar
        </CharString>
        <CharString name="dvH">
          -17 525 58 -86 callsubr
          -644 -54 438 -129 -143 hlineto
          -93 -70 -40 -86 -66 42 -38 47 -20 hvcurveto
          47 callgsubr
          -67 -438 -49 callgsubr
          endchar
        </CharString>
        <CharString name="dvHA">
          -17 525 58 -86 callsubr
          -644 -54 438 -129 -143 hlineto
          -93 -70 -40 -86 -66 42 -38 47 -20 hvcurveto
          101 callsubr
        </CharString>
        <CharString name="dvHA_mU">
          -17 343 -360 rmoveto
          126 78 59 98 99 -68 58 -139 -129 -69 72 92 87 57 75 108 114 43 -80 -69 hvcurveto
          61 hlineto
          95 -59 106 -158 291 callgsubr
          -19 vhcurveto
          134 callgsubr
          -85 vvcurveto
          -122 89 -95 172 102 49 -38 -68 -67 -59 -38 -89 -101 -80 45 102 5 vhcurveto
          -57 hlineto
          -134 -6 107 -64 132 hhcurveto
          endchar
        </CharString>
        <CharString name="dvHA_mUU">
          -17 320 -352 rmoveto
          49 vlineto
          -1 -13 -12 -1 -10 hhcurveto
          -62 -46 38 61 66 51 43 81 107 75 -79 -136 hvcurveto
          -35 54 28 vlineto
          164 -86 109 -150 vhcurveto
          0 vlineto
          -109 -58 73 91 87 57 75 108 114 44 -80 -71 -1 hvcurveto
          61 hlineto
          97 1 -60 106 -158 hhcurveto
          291 callgsubr
          -19 hvcurveto
          134 callgsubr
          -84 vvcurveto
          -85 41 -72 81 -34 vhcurveto
          -49 -26 -29 -47 -61 vvcurveto
          -96 69 -53 89 14 12 1 1 13 vhcurveto
          endchar
        </CharString>
        <CharString name="dvHA_mvR">
          63 386 -190 rmoveto
          46 vlineto
          -159 -96 102 137 117 66 104 168 106 57 -39 -66 22 hvcurveto
          1 -24 -29 1 -43 hhcurveto
          -95 -48 -51 -70 -83 71 -37 71 37 26 4 7 20 hvcurveto
          41 vlineto
          -7 -22 -26 -4 -26 hhcurveto
          -53 -49 25 56 45 31 37 66 hvcurveto
          143 hlineto
          104 -12 -78 81 -147 242 callgsubr
          300 177 120 54 -724 -54 548 -130 -261 249 callsubr
          -161 112 -129 196 3 vhcurveto
          endchar
        </CharString>
        <CharString name="dvH_LA">
          91 371 -186 rmoveto
          44 vlineto
          -149 -93 102 135 117 67 106 169 103 62 -49 -63 21 hvcurveto
          -45 -10 -21 -36 -7 -33 rrcurveto
          -2 hlineto
          39 -9 -28 43 -61 hhcurveto
          -68 -43 -47 -74 -75 43 -55 86 6 7 0 1 6 hvcurveto
          36 vlineto
          -1 -6 -5 0 -6 hhcurveto
          -58 -31 39 54 49 26 36 47 48 27 -40 -62 hvcurveto
          -7 39 7 vlineto
          63 27 39 50 45 26 -37 -48 -54 -31 -39 -58 -6 -5 0 1 -5 vhcurveto
          -36 vlineto
          -1 6 6 0 6 hhcurveto
          86 44 55 75 67 -36 46 -56 7 hvcurveto
          87 -23 -76 66 -133 242 callgsubr
          308 177 140 54 -752 -54 556 -130 -269 249 callsubr
          -158 109 -127 184 2 vhcurveto
          endchar
        </CharString>
        <CharString name="dvH_MA">
          626 166 420 rmoveto
          67 56 22 63 vhcurveto
          186 177 325 -234 -103 hlineto
          -88 -69 -43 -77 -21 hvcurveto
          -207 282 callsubr
          517 -254 80 callsubr
          -1287 105 callsubr
          110 hvcurveto
          200 hlineto
          -100 37 callgsubr
        </CharString>
        <CharString name="dvH_NA">
          632 166 420 rmoveto
          67 56 22 63 vhcurveto
          186 177 576 232 callsubr
          hlineto
          -112 -83 -65 -109 -8 hvcurveto
          -200 282 callsubr
          400 -103 40 callgsubr
          -1280 105 callsubr
          111 hvcurveto
          202 hlineto
          -92 16 77 -58 101 1 callsubr
        </CharString>
        <CharString name="dvH_NNA">
          58 361 27 rmoveto
          -46 -26 36 51 hvcurveto
          196 vlineto
          4 21 24 2 26 hhcurveto
          27 25 -3 -5 21 hvcurveto
          -194 vlineto
          -51 -27 -36 -45 vhcurveto
          -19 -167 rmoveto
          -129 5 -81 95 135 vvcurveto
          90 27 79 89 34 vhcurveto
          -181 vlineto
          -71 40 -54 72 73 40 53 72 vhcurveto
          177 vlineto
          76 -35 26 -75 -90 vvcurveto
          -137 49 137 vlineto
          145 -72 122 -193 -48 -41 -7 -13 -35 vhcurveto
          -42 15 -29 29 43 267 callgsubr
          284 177 137 54 -725 -54 533 -130 -246 hlineto
          -89 -66 -37 -81 -60 41 -38 46 -20 hvcurveto
          -76 -46 -36 279 callgsubr
        </CharString>
        <CharString name="dvH_R">
          15 callsubr
          -66 -435 -49 callgsubr
          endchar
        </CharString>
        <CharString name="dvH_RA">
          15 callsubr
          endchar
        </CharString>
        <CharString name="dvH_VA">
          43 432 -6 rmoveto
          -58 -43 38 64 63 47 38 54 -1 hvcurveto
          73 -1 30 -53 -47 vvcurveto
          -1 vlineto
          -45 -30 -55 -73 vhcurveto
          -90 -180 rmoveto
          -1 46 rlineto
          -128 5 -80 95 135 vvcurveto
          120 73 99 143 104 67 -62 -82 13 vhcurveto
          -20 34 -37 27 -55 -1 rrcurveto
          -76 -61 -51 -83 1 hvcurveto
          -82 57 -54 79 58 40 30 39 18 vhcurveto
          -118 47 218 vlineto
          126 -83 106 -158 -40 -36 -7 -12 -32 vhcurveto
          -40 13 -31 28 45 267 callgsubr
          247 177 135 54 -686 -54 495 -130 -208 hlineto
          -89 -66 -37 -81 -61 42 -39 46 -18 hvcurveto
          -71 -46 -42 279 callgsubr
        </CharString>
        <CharString name="dvH_YA">
          281 543 -57 rmoveto
          -94 -59 60 84 hvcurveto
          2 0 3 1 vvcurveto
          90 3 68 34 88 vvcurveto
          103 -90 40 -103 -45 -40 -8 -14 -35 vhcurveto
          -43 16 -29 29 44 267 callgsubr
          230 177 210 -528 hlineto
          -122 -57 -93 -114 vhcurveto
          229 -89 rmoveto
          832 141 54 -942 -54 476 -130 -189 vlineto
          -90 -66 -37 -81 -61 42 -39 48 -21 hvcurveto
          -74 -48 -41 -85 -103 vvcurveto
          -169 113 -133 192 -4 vhcurveto
          47 vlineto
          -156 6 -93 107 145 vvcurveto
          129 76 103 146 67 71 -23 -75 -64 -53 -27 -92 vhcurveto
          -10 hlineto
          -1 -11 -1 -11 -11 vvcurveto
          -108 68 -85 129 91 60 46 72 31 vhcurveto
          -161 vlineto
          endchar
        </CharString>
        <CharString name="dvI">
          -22 621 -31 callgsubr
          -662 62 callsubr
          166 hlineto
          83 callgsubr
          hlineto
          endchar
        </CharString>
        <CharString name="dvII">
          -22 159 91 rmoveto
          83 callgsubr
          157 54 -159 77 hlineto
          195 callsubr
          -77 -443 62 callsubr
          hlineto
          endchar
        </CharString>
        <CharString name="dvII_Anusvara">
          -22 159 91 rmoveto
          83 callgsubr
          157 54 -159 80 hlineto
          89 39 50 72 66 40 -47 -58 1 vhcurveto
          52 hlineto
          94 1 -61 62 -97 hhcurveto
          -115 -55 -77 -113 hvcurveto
          -80 -446 62 callsubr
          hlineto
          452 917 24 callgsubr
        </CharString>
        <CharString name="dvJ">
          -59 691 447 rmoveto
          55 -303 -166 vlineto
          -91 callsubr
          vlineto
          241 239 rmoveto
          54 -720 -54 vlineto
          endchar
        </CharString>
        <CharString name="dvJA">
          189 callgsubr
          689 -184 -272 -166 vlineto
          -91 callsubr
          210 223 callgsubr
          endchar
        </CharString>
        <CharString name="dvJH">
          -31 166 89 rmoveto
          -25 13 49 -69 120 hhcurveto
          118 56 68 83 62 -27 40 -36 24 hvcurveto
          222 -1 rlineto
          49 -407 vlineto
          13 callgsubr
          217 54 -710 142 callsubr
          endchar
        </CharString>
        <CharString name="dvJHA">
          241 274 320 rmoveto
          13 callgsubr
          205 -366 hlineto
          63 -320 203 callsubr
          -902 -62 callgsubr
          210 322 callsubr
        </CharString>
        <CharString name="dvJH_MA">
          746 1173 452 64 callsubr
          -370 -520 -95 callgsubr
          -529 154 rmoveto
          13 callgsubr
          452 -234 -103 hlineto
          -92 -72 -48 -84 -17 hvcurveto
          746 366 rmoveto
          54 -1407 -62 callgsubr
          169 -1 rlineto
          -96 5 69 -64 102 82 callgsubr
        </CharString>
        <CharString name="dvJH_NA">
          731 274 320 rmoveto
          13 callgsubr
          696 232 callsubr
          hlineto
          -116 -85 -69 -117 -2 hvcurveto
          58 -3 40 callgsubr
          -1393 -62 callgsubr
          167 -1 rlineto
          -87 19 75 -54 98 1 callsubr
        </CharString>
        <CharString name="dvJH_R">
          -31 166 89 rmoveto
          -25 13 49 -69 120 hhcurveto
          118 56 68 83 62 -27 40 -36 24 hvcurveto
          242 -1 rlineto
          49 -427 vlineto
          13 callgsubr
          237 54 -730 142 callsubr
          535 266 rmoveto
          -227 -295 rlineto
          67 hlineto
          160 224 rlineto
          endchar
        </CharString>
        <CharString name="dvJH_RA">
          295 274 320 rmoveto
          13 callgsubr
          260 -366 hlineto
          63 -320 157 callsubr
          -956 -62 callgsubr
          265 -1 rlineto
          -21 vlineto
          1 -11 rlineto
          -11 vlineto
          -251 -333 rlineto
          67 hlineto
          184 255 rlineto
          -150 vlineto
          endchar
        </CharString>
        <CharString name="dvJH_YA">
          686 274 320 rmoveto
          13 callgsubr
          371 -75 hlineto
          -5 callsubr
          -14 -2 -16 -14 vvcurveto
          -29 3 -27 5 -25 vhcurveto
          267 -146 rmoveto
          -134 -78 -94 callsubr
          -117 vhcurveto
          414 512 rmoveto
          54 -1347 -62 callgsubr
          192 -1 rlineto
          -95 38 83 -57 120 -34 callgsubr
        </CharString>
        <CharString name="dvJ_BA">
          629 871 148 rmoveto
          -107 -90 69 120 49 14 41 25 32 45 callgsubr
          -30 -31 -44 -20 -58 hhcurveto
          250 -148 157 callsubr
          -1290 -54 1088 115 callgsubr
          -72 -64 -27 -47 -44 hvcurveto
          -290 -166 hlineto
          -91 callsubr
          191 vlineto
          -16 -32 -8 -37 -41 vvcurveto
          98 callgsubr
          vhcurveto
          -215 vlineto
          -190 532 rmoveto
          130 63 -101 -93 -38 -12 -43 -25 -35 hvcurveto
          -290 261 rlineto
          32 35 47 17 52 hhcurveto
          endchar
        </CharString>
        <CharString name="dvJ_DA">
          558 1190 298 callsubr
          -1220 -54 1004 -117 -82 hlineto
          -78 -71 -22 -45 -49 hvcurveto
          -307 -166 hlineto
          -91 callsubr
          203 vlineto
          -17 -31 -9 -38 -44 vvcurveto
          -23 callsubr
        </CharString>
        <CharString name="dvJ_DDA">
          496 1129 -31 callgsubr
          -1158 -54 949 281 callsubr
          vlineto
          -56 -58 -14 -37 -35 hvcurveto
          -258 -166 hlineto
          -91 callsubr
          168 vlineto
          -2 -10 -1 -11 -12 vvcurveto
          259 callgsubr
          vhcurveto
          -29 callsubr
        </CharString>
        <CharString name="dvJ_JA">
          802 1433 -31 callgsubr
          -1462 -54 1258 -184 -272 -166 vlineto
          -14 callgsubr
          -326 -166 vlineto
          -91 callsubr
          200 -112 137 callsubr
          210 223 callgsubr
          endchar
        </CharString>
        <CharString name="dvJ_JHA">
          787 820 320 rmoveto
          13 callgsubr
          205 -366 hlineto
          63 -320 203 callsubr
          -1448 -54 977 239 callgsubr
          -58 -58 -14 -38 -35 hvcurveto
          -278 -166 hlineto
          -91 callsubr
          188 vlineto
          -3 -10 -1 -12 -12 vvcurveto
          210 callgsubr
          vhcurveto
          51 hlineto
          100 54 -46 -74 -58 -39 -51 -91 -106 -53 60 68 -11 hvcurveto
          -57 -248 61 165 hlineto
          -25 13 49 -69 120 hhcurveto
          118 56 68 83 62 -27 40 -36 24 hvcurveto
          210 322 callsubr
        </CharString>
        <CharString name="dvJ_J_NYA">
          720 1212 99 callgsubr
          -1381 -54 1178 -184 -761 -166 vlineto
          -6 callgsubr
          -167 vlineto
          -115 66 -81 117 116 70 81 115 vhcurveto
          114 335 vlineto
          105 80 -57 -104 -84 -54 -64 -92 -79 -75 48 95 -10 hvcurveto
          -60 -270 63 169 hlineto
          -49 27 63 -46 88 hhcurveto
          111 77 76 112 87 -46 58 -65 29 hvcurveto
          231 -449 hlineto
          endchar
        </CharString>
        <CharString name="dvJ_J_VA">
          1189 1435 157 -73 callsubr
          -1850 -54 1647 41 callgsubr
          -68 -60 -25 -43 -41 hvcurveto
          -294 -166 hlineto
          -14 callgsubr
          -326 -166 vlineto
          -91 callsubr
          200 -112 137 callsubr
          194 vlineto
          -15 -31 -8 -36 -40 vvcurveto
          -144 -60 callgsubr
        </CharString>
        <CharString name="dvJ_J_YA">
          1258 1476 174 rmoveto
          -134 -78 91 148 hvcurveto
          2 0 3 3 vvcurveto
          125 4 81 52 125 153 callsubr
          -1919 -54 1436 -75 vlineto
          -111 -75 -32 -112 vhcurveto
          -263 -132 hlineto
          -83 -46 -57 -77 -74 -45 57 83 vhcurveto
          132 -327 -132 vlineto
          7 callgsubr
          132 -64 -133 vlineto
          -115 66 -81 117 116 70 81 115 vhcurveto
          78 201 -78 vlineto
          -115 66 251 callsubr
          79 156 vlineto
          10 9 0 7 hhcurveto
          -179 3 94 -116 165 -34 callgsubr
        </CharString>
        <CharString name="dvJ_KA">
          950 1088 hmoveto
          -94 callgsubr
          -1611 -54 1056 -232 vlineto
          62 -28 -59 50 -98 hhcurveto
          -63 -56 -23 -41 -39 hvcurveto
          -296 -166 hlineto
          -91 callsubr
          197 vlineto
          -14 -31 -8 -36 -41 vvcurveto
          -67 callsubr
          endchar
        </CharString>
        <CharString name="dvJ_MA">
          726 1153 485 rmoveto
          -197 201 197 hlineto
          -370 -487 rmoveto
          -66 -49 46 70 72 52 45 75 hvcurveto
          100 -104 hlineto
          -81 -41 -48 -71 vhcurveto
          575 487 rmoveto
          54 -1387 -54 924 -201 -507 -149 vlineto
          7 callgsubr
          149 -64 -150 vlineto
          -115 66 -81 117 116 70 81 115 vhcurveto
          98 210 vlineto
          -32 -28 -19 -40 -53 vvcurveto
          -100 69 -67 106 108 64 67 119 vhcurveto
          101 197 -432 -59 callsubr
        </CharString>
        <CharString name="dvJ_NA">
          725 669 313 rmoveto
          80 58 55 114 callsubr
          54 78 vhcurveto
          685 373 rmoveto
          54 -1383 -54 1179 -184 -762 -166 vlineto
          -91 callsubr
          214 vlineto
          -33 -32 -20 -46 -56 vvcurveto
          -72 callsubr
          71 110 6 callsubr
          vhcurveto
          219 -449 63 686 hlineto
          endchar
        </CharString>
        <CharString name="dvJ_NY">
          -71 702 -31 callgsubr
          -731 -54 vlineto
          731 -208 rmoveto
          53 -459 -53 15 vlineto
          57 callgsubr
          endchar
        </CharString>
        <CharString name="dvJ_NYA">
          193 684 hmoveto
          0 callsubr
          -854 -54 650 -155 -378 -53 15 vlineto
          57 callgsubr
          229 -478 hlineto
          endchar
        </CharString>
        <CharString name="dvJ_NY_YA">
          703 921 174 rmoveto
          -133 -67 85 137 -11 hvcurveto
          5 vlineto
          126 6 79 58 137 vvcurveto
          84 241 callsubr
          -1364 -54 881 -75 vlineto
          -118 -63 -41 -98 -6 vhcurveto
          49 -25 -53 36 -88 hhcurveto
          -282 -53 15 hlineto
          57 callgsubr
          132 hlineto
          69 43 -35 -47 12 hvcurveto
          -166 10 83 -111 168 85 callgsubr
          vlineto
          endchar
        </CharString>
        <CharString name="dvJ_R">
          79 callsubr
          endchar
        </CharString>
        <CharString name="dvJ_RA">
          189 callgsubr
          691 -182 -274 53 callgsubr
          46 214 -123 vlineto
          -351 -358 rlineto
          72 hlineto
          281 293 rlineto
          -263 60 -43 callgsubr
        </CharString>
        <CharString name="dvJ_TA">
          640 1272 -31 callgsubr
          -1301 -54 1097 -187 -680 -163 vlineto
          7 callgsubr
          163 -64 -164 vlineto
          -115 66 -81 117 116 70 81 115 vhcurveto
          109 280 vlineto
          -64 -37 -38 -65 -96 vvcurveto
          -157 103 -87 157 vhcurveto
          30 52 -22 hlineto
          -131 111 callsubr
          endchar
        </CharString>
        <CharString name="dvJ_TTA">
          596 1228 -31 callgsubr
          -1257 -54 972 -126 -32 vlineto
          -79 -68 -19 -39 -51 hvcurveto
          -325 -166 hlineto
          -91 callsubr
          212 vlineto
          -26 -39 -14 -49 -59 vvcurveto
          -149 113 -102 153 157 105 105 154 vhcurveto
          -77 callgsubr
        </CharString>
        <CharString name="dvJ_VA">
          620 866 157 -73 callsubr
          -1281 -54 1078 41 callgsubr
          -68 -60 -25 -43 -41 hvcurveto
          -294 -166 hlineto
          -91 callsubr
          194 vlineto
          -15 -31 -8 -36 -40 vvcurveto
          -144 -60 callgsubr
        </CharString>
        <CharString name="dvJ_YA">
          0 callgsubr
          endchar
        </CharString>
        <CharString name="dvJx">
          -59 691 447 rmoveto
          55 -303 -166 vlineto
          -91 callsubr
          vlineto
          241 239 rmoveto
          54 -720 -54 vlineto
          344 226 callsubr
          endchar
        </CharString>
        <CharString name="dvJxA">
          189 callgsubr
          689 -184 -272 -166 vlineto
          -91 callsubr
          210 223 callgsubr
          -409 226 callsubr
          endchar
        </CharString>
        <CharString name="dvJx_JxA">
          802 315 7 rmoveto
          -101 callgsubr
          569 hmoveto
          -101 callgsubr
          549 679 rmoveto
          54 -1462 -54 1258 -184 -272 -166 vlineto
          -14 callgsubr
          -326 -166 vlineto
          -91 callsubr
          200 -112 137 callsubr
          210 223 callgsubr
          endchar
        </CharString>
        <CharString name="dvJx_R">
          79 callsubr
          -262 -401 -16 callsubr
          endchar
        </CharString>
        <CharString name="dvJx_RA">
          189 callgsubr
          691 -182 -274 53 callgsubr
          46 214 -123 vlineto
          -351 -358 rlineto
          72 hlineto
          281 293 rlineto
          -263 60 686 vlineto
          -538 -639 -16 callsubr
          endchar
        </CharString>
        <CharString name="dvJx_YA">
          0 callgsubr
          -866 226 callsubr
          endchar
        </CharString>
        <CharString name="dvK">
          22 callsubr
          endchar
        </CharString>
        <CharString name="dvKA">
          2 callgsubr
          endchar
        </CharString>
        <CharString name="dvKH">
          31 callgsubr
          116 -339 -70 callsubr
          endchar
        </CharString>
        <CharString name="dvKHA">
          323 603 194 53 callsubr
          -11 -51 108 callsubr
          -261 -89 -43 callsubr
          endchar
        </CharString>
        <CharString name="dvKH_KHA">
          997 451 347 -70 callsubr
          826 -153 rmoveto
          -84 -68 56 100 95 70 56 82 105 43 -82 -72 -69 -44 -84 -104 hvcurveto
          211 -194 203 callsubr
          -1658 -80 callsubr
          66 55 22 39 36 hvcurveto
          -130 13 91 -76 136 hhcurveto
          314 callsubr
          35 hvcurveto
          -2 13 13 -1 14 hhcurveto
          83 52 41 53 25 hvcurveto
          -237 vlineto
          -420 54 rmoveto
          -112 -67 70 105 hvcurveto
          120 3 vlineto
          96 83 45 152 hvcurveto
          140 228 callsubr
          64 -31 hvcurveto
          -59 -27 -54 -51 -87 hhcurveto
          -674 hmoveto
          -85 callsubr
          609 -139 vlineto
          -119 -61 -33 -71 -4 vhcurveto
          99 -17 -78 60 312 callsubr
          -86 -13 callgsubr
          endchar
        </CharString>
        <CharString name="dvKH_MA">
          874 1301 452 287 callsubr
          -850 -339 -70 callsubr
          479 -181 -21 callgsubr
        </CharString>
        <CharString name="dvKH_NA">
          873 820 317 -104 callsubr
          -369 30 -70 callsubr
          -120 -293 rmoveto
          -85 callsubr
          965 -180 -335 vlineto
          -73 -59 -27 -49 -34 hvcurveto
          76 -29 -71 44 -95 hhcurveto
          -126 -84 -13 callgsubr
          1174 632 rmoveto
          54 -1534 -80 callsubr
          80 63 32 57 35 hvcurveto
          -64 30 64 -38 83 hhcurveto
          108 80 70 111 65 -29 306 callgsubr
          hlineto
          endchar
        </CharString>
        <CharString name="dvKH_R">
          13 callsubr
          116 -339 -70 callsubr
          endchar
        </CharString>
        <CharString name="dvKH_RA">
          323 815 99 callgsubr
          -984 7 callsubr
          25 21 32 15 34 rlinecurve
          -3 13 14 220 callsubr
          -148 194 53 callsubr
          -272 -140 -43 callsubr
          endchar
        </CharString>
        <CharString name="dvKH_SHA">
          861 451 347 -53 callsubr
        </CharString>
        <CharString name="dvKH_TA">
          761 451 347 -29 callgsubr
        </CharString>
        <CharString name="dvKH_VA">
          756 1248 99 callgsubr
          -1417 -80 callsubr
          80 63 32 57 34 hvcurveto
          -80 34 74 -48 96 190 callgsubr
          vlineto
          -734 347 -70 callsubr
          551 -190 -102 callgsubr
          -671 -103 rmoveto
          -85 callsubr
          850 73 callsubr
          -91 -73 -44 -73 -35 hvcurveto
          62 -34 -65 35 -85 hhcurveto
          -126 -84 -13 callgsubr
          endchar
        </CharString>
        <CharString name="dvKH_YA">
          815 451 347 -41 callgsubr
        </CharString>
        <CharString name="dvKHx">
          31 callgsubr
          25 -820 rmoveto
          -101 callgsubr
          91 481 -70 callsubr
          endchar
        </CharString>
        <CharString name="dvKHxA">
          323 592 143 108 callsubr
          -232 -277 rmoveto
          -101 callgsubr
          243 328 53 callsubr
          -272 -140 -43 callsubr
          endchar
        </CharString>
        <CharString name="dvKHx_MA">
          874 360 -134 rmoveto
          -101 callgsubr
          91 481 -70 callsubr
          850 105 287 callsubr
          -371 -520 -21 callgsubr
        </CharString>
        <CharString name="dvKHx_R">
          13 callsubr
          -187 -754 -16 callsubr
          303 415 -70 callsubr
          endchar
        </CharString>
        <CharString name="dvKHx_RA">
          323 815 99 callgsubr
          -984 7 callsubr
          25 21 32 15 34 rlinecurve
          -3 13 14 220 callsubr
          -603 -68 -16 callsubr
          455 262 53 callsubr
          -272 -140 -43 callsubr
          endchar
        </CharString>
        <CharString name="dvKHx_SA">
          890 369 -136 rmoveto
          -101 callgsubr
          82 483 -70 callsubr
          -120 -293 rmoveto
          -85 callsubr
          705 -98 vlineto
          -108 -62 126 callsubr
          -56 hlineto
          88 -24 -75 51 -103 209 callgsubr
          40 -64 65 -31 hvcurveto
          -60 -25 -54 -52 -89 hhcurveto
          772 534 229 callsubr
          -1551 -74 callsubr
          16 18 -2 18 hhcurveto
          66 56 22 40 36 hvcurveto
          -124 65 -90 129 118 72 77 120 vhcurveto
          196 callsubr
        </CharString>
        <CharString name="dvKHx_SHA">
          861 369 -136 rmoveto
          -101 callgsubr
          82 483 -53 callsubr
        </CharString>
        <CharString name="dvKHx_TA">
          761 369 -136 rmoveto
          -101 callgsubr
          82 483 -29 callgsubr
        </CharString>
        <CharString name="dvKHx_VA">
          756 369 -136 rmoveto
          -101 callgsubr
          82 483 -70 callsubr
          551 -190 -102 callgsubr
          246 -157 157 callsubr
          -1417 -80 callsubr
          80 63 32 57 34 hvcurveto
          -80 34 74 -48 96 190 callgsubr
          vlineto
          -854 54 rmoveto
          -85 callsubr
          850 73 callsubr
          -91 -73 -44 -73 -35 hvcurveto
          62 -34 -65 35 -85 hhcurveto
          -126 -84 -13 callgsubr
          endchar
        </CharString>
        <CharString name="dvKHx_YA">
          815 369 -136 rmoveto
          -101 callgsubr
          82 483 -41 callgsubr
        </CharString>
        <CharString name="dvK_CA">
          781 1027 158 rmoveto
          -91 -78 57 106 97 67 72 106 hvcurveto
          34 52 -335 hlineto
          -105 -61 -46 -61 -27 hvcurveto
          251 671 -341 vlineto
          -101 -74 -85 -107 -1 vhcurveto
          -720 3 -107 callgsubr
          1106 525 rmoveto
          54 -1442 -106 callsubr
          319 vlineto
          84 47 87 130 vhcurveto
          195 hlineto
          -71 -32 -41 -67 -84 vvcurveto
          -133 97 -70 117 89 72 45 68 36 vhcurveto
          -217 -59 callsubr
        </CharString>
        <CharString name="dvK_DA">
          779 225 callgsubr
          659 -117 -82 hlineto
          -97 -86 -34 -71 -47 hvcurveto
          64 -34 -62 38 -78 77 callgsubr
          1104 525 rmoveto
          54 -1440 -105 callgsubr
          39 96 118 90 64 -66 -106 vhcurveto
          0 vlineto
          -1 0 -2 -2 vvcurveto
          -140 91 -86 131 76 64 35 51 28 vhcurveto
          -205 1 callgsubr
        </CharString>
        <CharString name="dvK_JA">
          999 307 -77 callsubr
          724 35 rmoveto
          -74 -45 57 83 hvcurveto
          16 vlineto
          126 -81 88 -121 290 callgsubr
          vhcurveto
          232 889 288 callsubr
          -46 -57 -77 vhcurveto
          600 490 rmoveto
          54 -1660 -105 callgsubr
          39 96 118 90 64 -65 -106 vhcurveto
          -14 vlineto
          -106 66 218 callgsubr
          209 223 callgsubr
          endchar
        </CharString>
        <CharString name="dvK_KA">
          235 callgsubr
          -79 -66 -36 -61 -38 hvcurveto
          61 -34 -61 36 -77 77 callgsubr
          1004 -161 rmoveto
          -94 callgsubr
          -1834 -105 callgsubr
          39 96 118 90 64 -66 -106 -67 callsubr
          endchar
        </CharString>
        <CharString name="dvK_KHA">
          1083 710 564 rmoveto
          290 callgsubr
          hvcurveto
          234 493 -133 vlineto
          -118 -58 -33 -69 -4 vhcurveto
          101 -20 -71 65 -102 178 callgsubr
          1267 -161 203 callsubr
          -1744 -105 callgsubr
          39 96 118 90 64 -66 -106 vhcurveto
          -109 vlineto
          -144 95 -88 146 208 callsubr
          82 52 41 53 25 hvcurveto
          -237 vlineto
          -148 194 53 callsubr
          -272 -140 rmoveto
          -111 -68 70 105 hvcurveto
          120 3 vlineto
          96 83 45 152 hvcurveto
          140 417 -229 vlineto
          53 -25 -51 41 -83 hhcurveto
          -112 -87 -79 -122 -89 42 -66 64 -31 259 callsubr
          -51 -88 hhcurveto
          endchar
        </CharString>
        <CharString name="dvK_LA">
          1072 1225 395 rmoveto
          -2 hlineto
          78 callsubr
          -76 -60 -33 -58 -34 hvcurveto
          67 -32 -61 40 -78 160 callgsubr
          233 843 30 callsubr
          -918 -234 -107 callgsubr
          230 169 rmoveto
          85 39 96 118 88 63 -63 -102 3 vhcurveto
          -1 -7 0 -9 -8 vvcurveto
          133 callsubr
          154 175 callgsubr
          vhcurveto
          -100 callgsubr
          -61 callsubr
          -1732 -106 callsubr
          vlineto
          endchar
        </CharString>
        <CharString name="dvK_MA">
          954 710 564 rmoveto
          191 callgsubr
          233 587 -234 -103 vlineto
          -48 -42 -13 -24 -32 hvcurveto
          92 -24 -68 57 -97 178 callgsubr
          704 5 14 callgsubr
        </CharString>
        <CharString name="dvK_NA">
          958 284 callgsubr
          849 200 callsubr
          -67 -57 -23 -43 -37 hvcurveto
          80 -27 -64 46 -88 hhcurveto
          -403 -405 -107 callgsubr
          598 156 40 callgsubr
          -1619 -105 callgsubr
          39 96 118 90 64 -66 -106 vhcurveto
          0 vlineto
          -1 -7 0 -7 -8 vvcurveto
          -3 callgsubr
        </CharString>
        <CharString name="dvK_NNA">
          993 225 callgsubr
          308 -179 hlineto
          35 -33 -47 20 -56 hhcurveto
          -93 224 callsubr
          -230 -290 -107 callgsubr
          720 87 rmoveto
          -56 callsubr
          598 315 callsubr
          -1654 -105 callgsubr
          39 96 118 79 59 -50 -79 13 vhcurveto
          -8 1 -13 2 -13 vhcurveto
          -1 vlineto
          0 vlineto
          -90 14 63 -63 102 hhcurveto
          118 65 81 113 hvcurveto
          298 211 -686 -59 callsubr
        </CharString>
        <CharString name="dvK_PA">
          -4 callgsubr
          -67 18 vhcurveto
          -121 14 70 -75 125 50 callsubr
        </CharString>
        <CharString name="dvK_PHA">
          1130 225 callgsubr
          300 311 callgsubr
          -50 158 callgsubr
          747 101 9 callsubr
          -1792 -105 callgsubr
          39 96 118 70 55 -41 -68 20 vhcurveto
          -120 14 67 -75 120 86 callgsubr
          endchar
        </CharString>
        <CharString name="dvK_P_RA">
          -4 callgsubr
          -68 18 vhcurveto
          -118 15 70 -74 124 hhcurveto
          225 callsubr
          hvcurveto
          -30 callgsubr
        </CharString>
        <CharString name="dvK_R">
          145 537 hmoveto
          330 vlineto
          84 1 46 97 117 hhcurveto
          90 73 -66 -106 hvcurveto
          64 hlineto
          137 -90 90 -120 -96 -58 -51 -64 -27 vhcurveto
          235 391 54 -957 33 callsubr
        </CharString>
        <CharString name="dvK_RA">
          399 537 hmoveto
          -31 callsubr
          -1060 33 callsubr
        </CharString>
        <CharString name="dvK_SA">
          975 947 411 -66 callsubr
          213 -270 -289 132 callsubr
          418 98 rmoveto
          54 -1636 -105 callgsubr
          39 96 118 90 64 -66 -91 vhcurveto
          141 callgsubr
          endchar
        </CharString>
        <CharString name="dvK_SHA">
          953 307 -77 callsubr
          403 403 rmoveto
          290 callgsubr
          hvcurveto
          234 469 vlineto
          5 15 16 2 18 hhcurveto
          85 54 -56 -92 -109 -86 -53 -111 hvcurveto
          -92 hlineto
          110 -15 -73 71 -107 hhcurveto
          538 -370 rmoveto
          3 0 5 -1 6 vhcurveto
          -62 -13 hlineto
          226 callgsubr
          -97 -43 69 93 vhcurveto
          120 103 vlineto
          138 105 71 142 132 -82 75 -121 -23 -21 -3 -6 -18 hvcurveto
          -1023 -54 505 -232 hlineto
          -96 callsubr
          61 267 callsubr
          118 90 64 -66 -106 vhcurveto
          -127 vlineto
          -132 72 -88 134 119 75 77 125 vhcurveto
          197 -194 rmoveto
          686 140 257 callsubr
        </CharString>
        <CharString name="dvK_SS">
          -81 159 573 -68 callgsubr
          308 49 -240 hlineto
          46 35 34 45 69 -35 callsubr
          endchar
        </CharString>
        <CharString name="dvK_SSA">
          182 159 573 -68 callgsubr
          288 -386 61 0 callsubr
          -202 -305 -220 hlineto
          46 35 34 45 69 -35 callsubr
          endchar
        </CharString>
        <CharString name="dvK_SS_MA">
          688 745 149 rmoveto
          -66 -49 46 70 72 52 44 75 -71 callgsubr
          -586 424 -68 callgsubr
          294 hlineto
          -30 -29 -18 -41 -51 vvcurveto
          -102 70 293 callgsubr
          -382 204 callgsubr
          -750 -54 288 -250 -466 vlineto
          46 35 34 45 69 -35 callsubr
          727 487 rmoveto
          -198 250 198 hlineto
          endchar
        </CharString>
        <CharString name="dvK_SS_M_YA">
          1151 745 147 rmoveto
          -66 -49 45 71 71 53 45 74 -71 callgsubr
          -586 426 -68 callgsubr
          297 hlineto
          -32 -29 -19 -42 -53 vvcurveto
          -101 70 -69 106 265 callgsubr
          85 176 vlineto
          -170 95 -111 168 114 74 54 64 34 vhcurveto
          -216 63 0 callsubr
          -1213 -54 288 -253 -468 vlineto
          46 35 36 46 70 -35 callsubr
          735 485 rmoveto
          -206 253 382 -98 hlineto
          -122 -74 -33 -102 vhcurveto
          245 -281 rmoveto
          -134 313 callgsubr
          3 0 4 4 vvcurveto
          123 3 83 55 137 vvcurveto
          106 216 -338 vlineto
          -118 -94 -78 -116 vhcurveto
          endchar
        </CharString>
        <CharString name="dvK_SS_VA">
          576 159 573 -68 callgsubr
          257 hlineto
          -3 -15 -1 -15 -16 vvcurveto
          -144 -48 callsubr
          54 -634 -54 431 73 callsubr
          -98 -80 -51 -84 -34 hvcurveto
          -203 hlineto
          46 35 34 45 69 -35 callsubr
          433 209 128 callsubr
        </CharString>
        <CharString name="dvK_SS_YA">
          632 159 573 -68 callgsubr
          251 hlineto
          -3 0 -2 -3 vvcurveto
          -157 98 -102 168 112 73 53 65 34 vhcurveto
          -237 204 callgsubr
          -688 -54 205 -98 vlineto
          -123 -81 -32 -99 vhcurveto
          -211 hlineto
          46 35 36 46 70 -35 callsubr
          461 226 rmoveto
          -134 -78 78 125 hvcurveto
          3 0 3 3 vvcurveto
          128 5 78 59 138 vvcurveto
          98 -54 callsubr
          -93 -78 -117 vhcurveto
          endchar
        </CharString>
        <CharString name="dvK_S_DDA">
          1285 79 callgsubr
          520 281 callsubr
          vlineto
          -87 -92 -32 -105 -1 hvcurveto
          -291 hlineto
          -22 callsubr
          729 98 rmoveto
          54 -1947 -105 callgsubr
          39 96 118 90 64 -66 -91 vhcurveto
          -147 vlineto
          -126 65 -3 callsubr
          160 500 vlineto
          -67 24 73 -23 71 hhcurveto
          -29 callsubr
        </CharString>
        <CharString name="dvK_S_P_LA">
          1960 79 callgsubr
          191 -234 vlineto
          -12 0 -12 1 -12 vhcurveto
          -268 hlineto
          -22 callsubr
          409 -326 42 callsubr
          -366 -74 180 callsubr
          478 vlineto
          -97 24 67 -59 110 hhcurveto
          65 50 24 39 34 hvcurveto
          -112 18 77 -79 134 hhcurveto
          -79 callsubr
          -61 callsubr
          -2621 -105 callgsubr
          39 96 118 90 64 -66 -91 vhcurveto
          -147 vlineto
          -126 65 -82 callsubr
          endchar
        </CharString>
        <CharString name="dvK_S_P_RA">
          1337 947 411 -66 callsubr
          191 -234 vlineto
          -12 1 -12 1 -12 vhcurveto
          -269 hlineto
          -22 callsubr
          417 -326 rmoveto
          -89 callsubr
          -1998 -105 callgsubr
          39 96 118 90 64 -66 -91 vhcurveto
          -21 callsubr
          478 vlineto
          -95 25 67 -58 110 hhcurveto
          225 callsubr
          hvcurveto
          -30 callgsubr
        </CharString>
        <CharString name="dvK_S_TA">
          1380 947 411 -66 callsubr
          619 238 callsubr
          -98 -82 -26 -57 -50 hvcurveto
          -310 hlineto
          -22 callsubr
          823 98 rmoveto
          54 -2041 -105 callgsubr
          39 96 118 90 64 -66 -91 vhcurveto
          -21 callsubr
          477 vlineto
          -14 -31 -8 -38 -43 -67 callgsubr
          endchar
        </CharString>
        <CharString name="dvK_S_TTA">
          1341 947 411 -66 callsubr
          499 -126 -32 vlineto
          -124 -99 -49 -95 -43 hvcurveto
          -277 hlineto
          -22 callsubr
          784 98 rmoveto
          54 -2002 -105 callgsubr
          39 96 118 90 64 -66 -91 vhcurveto
          -21 callsubr
          461 vlineto
          -4 -20 -2 -21 -22 vvcurveto
          -149 113 -102 153 157 105 105 154 vhcurveto
          -77 callgsubr
        </CharString>
        <CharString name="dvK_TA">
          493 1125 -31 callgsubr
          -1154 -54 572 -202 -506 -54 188 vlineto
          -64 -32 -46 -63 -98 vvcurveto
          -150 103 -85 156 vhcurveto
          30 52 -21 hlineto
          -132 -73 69 119 127 89 60 135 hvcurveto
          141 -429 61 257 hlineto
          79 52 97 131 94 76 -69 -109 -117 -72 -69 -103 -18 -23 3 2 -13 vhcurveto
          -51 vlineto
          -4 18 27 -3 23 hhcurveto
          132 93 90 150 140 -95 93 -124 -105 -64 -52 -65 -29 hvcurveto
          314 vlineto
          endchar
        </CharString>
        <CharString name="dvK_THA">
          917 307 -77 callsubr
          403 403 rmoveto
          290 callgsubr
          hvcurveto
          234 459 1 vlineto
          4 12 15 3 19 hhcurveto
          76 44 -55 -68 -124 -110 -27 -101 hvcurveto
          -53 hlineto
          87 -21 -71 57 -96 hhcurveto
          699 -564 rmoveto
          685 140 55 187 callgsubr
          -146 228 callgsubr
          -70 76 -110 -21 -19 -3 -6 -18 hvcurveto
          -1014 -54 505 -232 hlineto
          -96 callsubr
          61 267 callsubr
          118 80 61 -53 -78 11 vhcurveto
          -2 0 -3 -2 vvcurveto
          -165 101 -104 168 128 76 279 callsubr
        </CharString>
        <CharString name="dvK_TTA">
          820 284 callgsubr
          630 -126 -32 vlineto
          -107 -89 -36 -72 -50 hvcurveto
          71 -32 -64 43 -83 hhcurveto
          -403 -405 -107 callgsubr
          1145 525 rmoveto
          54 -1481 -105 callgsubr
          39 96 118 90 64 -66 -106 vhcurveto
          0 vlineto
          -1 -12 -1 -13 -14 vvcurveto
          -149 113 -102 153 157 105 105 154 vhcurveto
          -77 callgsubr
        </CharString>
        <CharString name="dvK_T_RA">
          869 1298 426 rmoveto
          53 -34 -65 56 -106 hhcurveto
          -89 -72 -36 -66 -41 hvcurveto
          87 -32 -69 46 -79 hhcurveto
          -91 -57 -50 -64 -26 hvcurveto
          234 761 vlineto
          -991 -525 -107 callgsubr
          1194 525 rmoveto
          54 -1530 -105 callgsubr
          45 96 114 86 74 -68 -142 vhcurveto
          0 vlineto
          -1 0 -2 -2 vvcurveto
          161 callgsubr
        </CharString>
        <CharString name="dvK_T_VA">
          1215 699 560 rmoveto
          -87 -51 -46 -60 -24 hvcurveto
          232 1107 73 callsubr
          -70 -60 -26 -45 -42 hvcurveto
          -165 hlineto
          -109 -88 -32 -70 -48 hvcurveto
          112 -19 -64 51 -82 hhcurveto
          -392 194 callgsubr
          1154 -4 -73 callsubr
          -1876 -54 505 -232 hlineto
          -96 callsubr
          61 330 vlineto
          84 38 93 111 86 59 -65 -157 -6 vhcurveto
          -1 -11 -1 -11 -12 100 callsubr
        </CharString>
        <CharString name="dvK_T_YA">
          1274 697 560 rmoveto
          -86 -50 -45 -60 -24 hvcurveto
          231 886 135 callgsubr
          -94 -73 -31 -65 -41 hvcurveto
          92 -22 -62 42 -80 hhcurveto
          -390 194 callgsubr
          1185 13 -12 callgsubr
          -1935 -106 callgsubr
          84 38 93 111 83 61 -57 -138 -5 vhcurveto
          -1 -12 -1 -13 -13 vvcurveto
          74 callgsubr
          vhcurveto
          -36 callgsubr
        </CharString>
        <CharString name="dvK_VA">
          847 537 -32 callsubr
          386 583 rmoveto
          -1508 -54 505 -232 hlineto
          -96 callsubr
          61 267 callsubr
          118 90 64 -66 -106 vhcurveto
          0 vlineto
          -143 -60 callgsubr
        </CharString>
        <CharString name="dvK_V_YA">
          1330 1092 570 rmoveto
          -95 -77 -41 -69 -41 hvcurveto
          65 -32 -60 39 -77 160 callgsubr
          233 941 -97 vlineto
          -121 -65 -41 -100 -4 vhcurveto
          79 -26 -73 68 -122 hhcurveto
          -785 -409 -107 callgsubr
          788 -4 54 callsubr
          -1991 -105 callgsubr
          39 96 118 90 64 -66 -106 vhcurveto
          0 vlineto
          -143 101 -92 145 114 67 62 73 29 vhcurveto
          -75 41 80 -45 111 85 callgsubr
          vlineto
          endchar
        </CharString>
        <CharString name="dvK_YA">
          897 710 -51 callgsubr
          -1558 -54 505 -232 vlineto
          62 -28 -59 50 -98 hhcurveto
          -124 -93 -88 -139 -144 91 -89 124 97 62 50 64 28 hvcurveto
          43 callsubr
        </CharString>
        <CharString name="dvKx">
          22 callsubr
          17 -188 323 callsubr
          -26 -27 -20 -20 -27 -26 20 -20 27 26 258 callgsubr
        </CharString>
        <CharString name="dvKxA">
          2 callgsubr
          17 -188 323 callsubr
          -26 -27 -20 -20 -27 -26 20 -20 27 26 258 callgsubr
        </CharString>
</ttFont>
